<?xml version="1.0" encoding="utf-8"?>
<!-- Generator: Adobe Illustrator 23.0.6, SVG Export Plug-In . SVG Version: 6.00 Build 0)  -->
<svg version="1.1" xmlns="http://www.w3.org/2000/svg" xmlns:xlink="http://www.w3.org/1999/xlink" x="0px" y="0px"
	 viewBox="0 0 3710 3710" style="enable-background:new 0 0 3710 3710;" xml:space="preserve">
<style type="text/css">
	.st0{fill:url(#SVGID_1_);}
	.st1{fill:url(#SVGID_2_);}
	.st2{fill:#FFFFFF;}
</style>
<g id="Background">
</g>
<g id="Illustration">
	<g>
		<linearGradient id="SVGID_1_" gradientUnits="userSpaceOnUse" x1="2579.1157" y1="449.3709" x2="411.1157" y2="4755.1279">
			<stop  offset="0" style="stop-color:#E1473D"/>
			<stop  offset="1" style="stop-color:#E9605A"/>
		</linearGradient>
		<circle class="st0" cx="1855" cy="1887.5" r="1236.48"/>
		<linearGradient id="SVGID_2_" gradientUnits="userSpaceOnUse" x1="3477.3823" y1="-2134.863" x2="1821.2115" y2="1971.5239">
			<stop  offset="0" style="stop-color:#FF928E"/>
			<stop  offset="1" style="stop-color:#FE7062"/>
		</linearGradient>
		<circle class="st1" cx="1852.91" cy="1892.92" r="1197.77"/>
	</g>
	<g>
		<path class="st2" d="M2403.48,2686.85c-43.19,0-86.07-18.39-115.99-54.08L1218.67,1358c-53.67-64.02-45.29-159.41,18.73-213.09
			c64.03-53.66,159.42-45.29,213.09,18.73l1068.82,1274.77c53.67,64.02,45.29,159.41-18.73,213.09
			C2472.25,2675.26,2437.77,2686.85,2403.48,2686.85z"/>
		<path class="st2" d="M1200.96,2677.55c-39.71,0-79.36-15.54-109.06-46.43c-57.9-60.21-56.02-155.97,4.2-213.86L2357.2,1204.7
			c60.23-57.93,155.98-56.03,213.87,4.19c57.9,60.21,56.02,155.97-4.2,213.86l-1261.1,1212.57
			C1276.44,2663.53,1238.67,2677.55,1200.96,2677.55z"/>
	</g>
</g>
</svg>
