<svg xmlns="http://www.w3.org/2000/svg" xmlns:xlink="http://www.w3.org/1999/xlink" viewBox="0 0 3710 3710"><defs><style>.cls-1{fill:#91b3fa;}.cls-2{fill:#fff;}.cls-3{fill:url(#linear-gradient);}.cls-4{fill:url(#linear-gradient-2);}.cls-5{fill:#bdd0fb;}</style><linearGradient id="linear-gradient" x1="-233" y1="4107.63" x2="1981.42" y2="4107.63" gradientTransform="matrix(-0.96, -0.3, -0.3, 0.96, 5600.49, -504.9)" gradientUnits="userSpaceOnUse"><stop offset="0" stop-color="#09005d"/><stop offset="1" stop-color="#1a0f91"/></linearGradient><linearGradient id="linear-gradient-2" x1="2055.13" y1="420.76" x2="2055.13" y2="3349.96" gradientTransform="matrix(-1, 0.07, 0.07, 1, 3111.66, 306.81)" xlink:href="#linear-gradient"/></defs><g id="Illustration"><circle class="cls-1" cx="1131.08" cy="1384.89" r="863.62"/><circle class="cls-2" cx="1136.53" cy="1389.32" r="787.52"/><path class="cls-1" d="M895.42,1091.74c0,133.35,108.09,277.31,241.44,277.31s241.44-144,241.44-277.31S1270.21,863.8,1136.86,863.8,895.42,958.4,895.42,1091.74Z"/><path class="cls-1" d="M1436.49,1882.44H847.09a142.68,142.68,0,0,1-135.89-99.19l-31.71-99.13c-23.22-72.58,14.53-151.17,86.1-177.34,239.87-87.7,487.9-76.45,742,8.1,71.18,23.68,110.68,99.82,91,172.22l-24.42,90A142.68,142.68,0,0,1,1436.49,1882.44Z"/><path class="cls-3" d="M1902,2095.09l1745.6,1324.12c73.22,55.53,83.6,161.66,22.55,230.34l-10,11.27a146.54,146.54,0,0,1-207.59,11.53L1815.85,2198.24Z"/><path class="cls-4" d="M50.63,1050.8C-130.56,1636.75,206.3,2261.34,803,2445.85S2030.34,2304.94,2211.53,1719s-155.67-1210.53-752.39-1395S231.81,464.85,50.63,1050.8Zm158.71,49.07C363.91,600,901.89,322.37,1411,479.78S2207.39,1170,2052.81,1669.91,1360.26,2447.41,851.21,2290,54.77,1599.76,209.34,1099.87Z"/><path class="cls-5" d="M2089.3,1821.45a4.06,4.06,0,0,1-2-5.39c10.86-23.89,20.92-48.49,29.89-73.14a4.07,4.07,0,1,1,7.66,2.78c-9,24.85-19.19,49.66-30.14,73.74a4.08,4.08,0,0,1-4,2.37A3.77,3.77,0,0,1,2089.3,1821.45Zm85.51-298.62a4.06,4.06,0,0,1-3.54-4.53,1011.59,1011.59,0,0,0,3.35-215C2136.13,882,1846,527.72,1435.39,400.76c-191.48-59.2-394-63.57-585.82-12.63a4.07,4.07,0,0,1-2.09-7.87c193.25-51.34,397.38-46.93,590.31,12.72,205.14,63.43,384,184.54,517.38,350.23,130.23,161.82,208.92,355.24,227.56,559.32a1019.27,1019.27,0,0,1-3.38,216.76,4.07,4.07,0,0,1-4.31,3.57A1.6,1.6,0,0,1,2174.81,1522.83Z"/><path class="cls-5" d="M3530.82,3662.6a2.8,2.8,0,0,0,.41,0c66.71-2.19,108.95-26.85,125.54-73.3,16.7-46.74.5-99.94-40.32-132.39l-207.69-165.12a4.07,4.07,0,1,0-5.07,6.37l207.7,165.12c38.08,30.29,53.24,79.83,37.71,123.28-15.36,43-55.1,65.83-118.14,67.91a4.07,4.07,0,0,0-.14,8.13Z"/><path class="cls-2" d="M3342,3248.16a4.07,4.07,0,0,0,2.81-7.25l-26.92-21.4a4.07,4.07,0,1,0-5.06,6.37l26.91,21.4A4,4,0,0,0,3342,3248.16Z"/></g></svg>