<?xml version="1.0" encoding="utf-8"?>
<!-- Generator: Adobe Illustrator 23.0.6, SVG Export Plug-In . SVG Version: 6.00 Build 0)  -->
<svg version="1.1" id="Vrstva_1" xmlns="http://www.w3.org/2000/svg" xmlns:xlink="http://www.w3.org/1999/xlink" x="0px" y="0px"
	 viewBox="0 0 3710 3710" style="enable-background:new 0 0 3710 3710;" xml:space="preserve">
<style type="text/css">
	.st0{fill:url(#SVGID_1_);}
	.st1{fill:#BDD0FB;}
	.st2{opacity:0.23;fill:#FFFFFF;enable-background:new    ;}
	.st3{fill:url(#SVGID_2_);}
	.st4{fill:url(#SVGID_3_);}
</style>
<g id="Background">
</g>
<g id="Illustration">
	
		<linearGradient id="SVGID_1_" gradientUnits="userSpaceOnUse" x1="3650.1702" y1="-560.2375" x2="946.9052" y2="2797.0486" gradientTransform="matrix(1 0 0 -1 0 3710)">
		<stop  offset="0" style="stop-color:#DAE3FE"/>
		<stop  offset="1" style="stop-color:#E9EFFD"/>
	</linearGradient>
	<path class="st0" d="M2906.48,2946.24c-62.1,65.36-120.85,107.53-167.26,140.83c-545.64,391.51-1191.29,277.38-1328.5,249.52
		c-202.63-41.15-594.3-120.7-877.46-453.71c-428.42-503.81-361.7-1297.54-29.39-1821.5c60.79-95.84,381.87-627.77,1034.46-713.08
		c394.94-51.63,855.32,52.5,1188.71,331.81C3426.84,1266.43,3377.01,2450.88,2906.48,2946.24z"/>
	<path class="st1" d="M2370.52,3387.22c-1.88-0.03-3.4-1.57-3.39-3.47l0.27-33.02c0.01-1.89,1.57-3.43,3.47-3.41h0.03
		c1.89,0.03,3.41,1.57,3.39,3.47l-0.27,33.02c-0.01,1.89-1.57,3.43-3.47,3.41C2370.55,3387.22,2370.53,3387.22,2370.52,3387.22z"/>
	<path class="st1" d="M2902.87,1963.59c-1.88-0.03-3.4-1.57-3.39-3.47c0.01-1.91,1.57-3.43,3.47-3.41l16.34,0.13
		c1.99,0.04,3.43,1.57,3.41,3.47c-0.01,1.91-1.57,3.43-3.47,3.41l-16.34-0.13H2902.87z"/>
	<ellipse class="st2" cx="1745.04" cy="2051.17" rx="1105.41" ry="1116.27"/>
	
		<linearGradient id="SVGID_2_" gradientUnits="userSpaceOnUse" x1="11406.8496" y1="1658.8407" x2="13866.876" y2="1658.8407" gradientTransform="matrix(-1 0 0 -1 14381.9053 3710)">
		<stop  offset="0" style="stop-color:#09005D"/>
		<stop  offset="1" style="stop-color:#1A0F91"/>
	</linearGradient>
	<path class="st3" d="M515.03,2051.16c0,686,550.69,1242.12,1230.01,1242.12s1230.01-556.12,1230.01-1242.12
		S2424.36,809.04,1745.04,809.04C1065.73,809.05,515.03,1365.17,515.03,2051.16z M695.72,2051.16
		c0-585.23,469.8-1059.66,1049.32-1059.66s1049.32,474.42,1049.32,1059.66s-469.8,1059.66-1049.32,1059.66
		S695.72,2636.4,695.72,2051.16z"/>
	<g>
		<path class="st1" d="M2881.55,2201.89c-0.23,0-0.45-0.01-0.67-0.04c-2.85-0.37-4.87-3.07-4.51-6c3.6-28.99,6.15-58.59,7.57-87.98
			c0.15-2.95,2.69-5.24,5.45-5.08c2.88,0.15,5.08,2.67,4.95,5.61c-1.43,29.66-4,59.55-7.63,88.81
			C2886.36,2199.92,2884.13,2201.89,2881.55,2201.89z M2873.1,1854.57c-2.47,0-4.67-1.83-5.12-4.41
			c-13.76-78.92-35.82-156.53-65.55-230.72c-175.24-437.16-590.28-719.65-1057.39-719.65c-217.83,0-429.58,62.23-612.35,179.94
			c-2.43,1.57-5.64,0.81-7.19-1.69c-1.52-2.51-0.79-5.81,1.65-7.39c184.45-118.79,398.1-181.58,617.88-181.58
			c471.33,0,890.17,285.08,1067,726.27c30.02,74.88,52.28,153.24,66.18,232.91c0.51,2.92-1.37,5.69-4.21,6.21
			C2873.71,1854.54,2873.39,1854.57,2873.1,1854.57z"/>
	</g>
	
		<linearGradient id="SVGID_3_" gradientUnits="userSpaceOnUse" x1="1439.8899" y1="1338.7067" x2="3559.3875" y2="5468.6162" gradientTransform="matrix(1 0 0 -1 0 3710)">
		<stop  offset="0" style="stop-color:#FE7062"/>
		<stop  offset="1" style="stop-color:#FF928E"/>
	</linearGradient>
	<path class="st4" d="M1398,1266.96c185.78,182.57,346.37,372.28,486.46,567.81c208.71-475.89,431.21-918,672.03-1315.16
		l590.55-196.83c-406.84,530.48-840.53,1320.97-1211.3,2113.82c-268.09-377.8-535.93-754.87-729.14-888.66L1398,1266.96z"/>
</g>
</svg>
