<?xml version="1.0" encoding="utf-8"?>
<!-- Generator: Adobe Illustrator 23.0.6, SVG Export Plug-In . SVG Version: 6.00 Build 0)  -->
<svg version="1.1" id="Vrstva_1" xmlns="http://www.w3.org/2000/svg" xmlns:xlink="http://www.w3.org/1999/xlink" x="0px" y="0px"
	 viewBox="0 0 3710 3710" style="enable-background:new 0 0 3710 3710;" xml:space="preserve">
<style type="text/css">
	.st0{fill:url(#SVGID_1_);}
	.st1{fill:url(#SVGID_2_);}
	.st2{opacity:0.6;fill:#FFFFFF;enable-background:new    ;}
	.st3{opacity:0.6;}
	.st4{fill:#FFFFFF;}
	.st5{fill:url(#SVGID_3_);}
	.st6{fill:url(#SVGID_4_);}
	.st7{fill:url(#SVGID_5_);}
	.st8{fill:url(#SVGID_6_);}
	.st9{fill:url(#SVGID_7_);}
	.st10{fill:url(#SVGID_8_);}
	.st11{fill:url(#SVGID_9_);}
	.st12{fill:#BDD0FB;}
	.st13{fill:url(#SVGID_10_);}
</style>
<linearGradient id="SVGID_1_" gradientUnits="userSpaceOnUse" x1="1952.0228" y1="353.8771" x2="-476.7528" y2="-3524.3252" gradientTransform="matrix(0.9996 0.026 0.026 -0.9996 686.9564 1112.314)">
	<stop  offset="0" style="stop-color:#4F52FF"/>
	<stop  offset="1" style="stop-color:#4042E2"/>
</linearGradient>
<path class="st0" d="M953.14,488.65l1731.78,30.25c95.55,1.67,173.01,82.04,176.2,182.79l83.91,2651.14
	c2.49,78.84-57.38,144.26-132.16,144.38l-1985.46,3.39c-70.26,0.12-126.9-60.59-125.67-134.71l44.2-2665.95
	C747.9,581.28,840.67,486.69,953.14,488.65z"/>
<g>
	
		<linearGradient id="SVGID_2_" gradientUnits="userSpaceOnUse" x1="2139.6294" y1="2297.6875" x2="-208.0106" y2="-1151.4869" gradientTransform="matrix(0.9997 -0.022 -0.022 -0.9997 15.2791 3883.0791)">
		<stop  offset="0" style="stop-color:#FF928E"/>
		<stop  offset="1" style="stop-color:#FEB3B1"/>
	</linearGradient>
	<path class="st1" d="M958.82,467.27c235.92,37.97,1047.41,156.82,1720.69,114.11c30.71-1.95,56.91,23.03,58.01,55.45l89.92,2663.04
		c1.24,36.51-25.68,67.25-60.3,68.8c-283.07,12.72-1448.8,60.62-1863.43,7.47c-25.24-3.23-44.05-26.02-43.76-52.84l30.76-2794.96
		C891.12,490.38,923.25,461.55,958.82,467.27z"/>
	<path class="st2" d="M983,536.72c227.04,36.53,1007.98,150.92,1655.89,109.8c29.55-1.88,54.76,22.16,55.82,53.37l86.53,2562.77
		c1.18,35.14-24.72,64.72-58.02,66.21c-272.42,12.24-1394.25,58.34-1793.26,7.18c-24.29-3.12-42.39-25.04-42.11-50.86l29.6-2689.72
		C917.85,558.96,948.77,531.22,983,536.72z"/>
	<g class="st3">
		<path class="st4" d="M2603.7,870.95c16.45,0.29,29.51-7.77,29.04-17.91c-0.47-10.14-14.29-18.78-30.74-19.21L1158.18,796.6
			c-16.43-0.42-21.69,10.48-11.67,24.23c10.02,13.75,31.66,25.23,48.11,25.52L2603.7,870.95z"/>
	</g>
	<g class="st3">
		<path class="st4" d="M1156.47,898.94c-16.43-0.42-21.69,10.48-11.67,24.23c10.02,13.75,31.66,25.23,48.11,25.52l1409.1,24.61
			c16.45,0.29,29.51-7.77,29.04-17.91c-0.47-10.14-14.29-18.78-30.74-19.21L1156.47,898.94z"/>
	</g>
	<path class="st4" d="M1381.53,1833.08c-0.17,0.01-0.36,0.01-0.54,0.01l-194.94,1.28c-28.09,0.18-51.56-19.83-54.6-46.55
		l-19.57-172.25c-1.16-10.25,1.71-20.43,8.11-28.71c7.13-9.24,18.05-15.14,29.92-16.2l0,0c16.42-1.45,39.04-3.87,63.92-6.53
		c54.17-5.78,115.59-12.33,151.7-13.42c0.26-0.01,0.53-0.02,0.79-0.02c25.84-0.43,48.31,15.82,54.81,39.74
		c10.73,39.51,10.89,114.52,10.09,194.46C1430.99,1811.11,1408.73,1832.62,1381.53,1833.08z M1151.25,1587.39
		c-7.61,0.67-14.51,4.33-18.93,10.07c-3.63,4.69-5.28,10.42-4.63,16.09l19.57,172.25c2.07,18.25,18.72,31.91,38.72,31.78
		l194.94-1.28c0.12,0,0.25-0.01,0.38-0.01c18.63-0.31,33.87-14.4,34.04-31.56c0.79-78.63,0.66-152.32-9.48-189.66
		c-4.5-16.53-21.61-28.58-39.88-27.58c-35.53,1.06-99.31,7.87-150.55,13.32C1190.46,1583.5,1167.74,1585.91,1151.25,1587.39
		L1151.25,1587.39z"/>
	<path class="st2" d="M1172.44,1604.35c40.9-3.64,129.76-14.65,171.96-15.91c17.88-0.53,33.73,10.61,38.15,26.89
		c8.59,31.64,8.41,95,7.82,153.48c-0.18,17.52-15.22,31.75-33.84,31.86l-155.78,1.03c-19.16,0.12-35.25-13.39-37.28-31.31
		l-15.64-137.64C1146.2,1618.51,1157.27,1605.7,1172.44,1604.35z"/>
	<g class="st3">
		<path class="st4" d="M1564,1651.31c-16.45-0.14-26.27,13.41-21.85,30.12l11.03,41.59c4.43,16.7,21.5,30.14,37.94,29.86
			l953.6-15.92c16.44-0.28,29.4-14.69,28.79-32.01l-0.47-13.64c-0.6-17.34-14.55-31.62-30.99-31.77L1564,1651.31z"/>
	</g>
	
		<linearGradient id="SVGID_3_" gradientUnits="userSpaceOnUse" x1="17117.2754" y1="37914.4648" x2="18151.5137" y2="40417.8008" gradientTransform="matrix(1 -0.0153 -0.0153 -1 1230.6606 -1913.1813)">
		<stop  offset="0" style="stop-color:#FE7062"/>
		<stop  offset="1" style="stop-color:#FF928E"/>
	</linearGradient>
	<path class="st5" d="M1181.11,1631.27L1181.11,1631.27c14.34-9.19,33.04-4.16,41.43,11.16l39.47,72.07
		c3.95,7.22,14.01,6.59,17.14-1.06l92.19-225.55c4.6-11.25,20.42-7.74,20.42,4.51c-0.01,68.53-15.39,199.03-117.61,309.75
		c0,0-57.5-22.5-105.05-128.39C1162.24,1658.44,1167.39,1640.06,1181.11,1631.27z"/>
	<path class="st4" d="M1393.14,1371.35c-0.18,0-0.36,0.01-0.54,0.01l-194.94,1.28c-28.09,0.18-51.56-19.83-54.6-46.55l-19.57-172.25
		c-1.16-10.25,1.71-20.45,8.11-28.71c7.13-9.24,18.05-15.14,29.92-16.2l0,0c16.42-1.45,39.04-3.87,63.92-6.53
		c54.17-5.78,115.59-12.33,151.7-13.42c0.26-0.01,0.53-0.02,0.79-0.02c25.84-0.43,48.31,15.82,54.81,39.74
		c10.73,39.5,10.89,114.52,10.09,194.46C1442.58,1349.39,1420.34,1370.9,1393.14,1371.35z M1162.86,1125.66
		c-7.61,0.67-14.51,4.33-18.93,10.07c-3.63,4.69-5.28,10.42-4.63,16.09l19.57,172.25c2.07,18.25,18.72,31.91,38.72,31.78
		l194.94-1.28c0.12,0,0.25-0.01,0.38-0.01c18.63-0.31,33.87-14.4,34.04-31.56c0.79-78.63,0.66-152.32-9.48-189.66
		c-4.5-16.53-21.61-28.58-39.88-27.58c-35.53,1.06-99.31,7.87-150.55,13.32C1202.06,1121.76,1179.35,1124.19,1162.86,1125.66
		L1162.86,1125.66z"/>
	<path class="st2" d="M1184.03,1142.62c40.9-3.63,129.76-14.65,171.96-15.91c17.88-0.53,33.73,10.61,38.15,26.89
		c8.59,31.64,8.41,94.99,7.82,153.48c-0.18,17.52-15.22,31.75-33.84,31.86l-155.78,1.03c-19.16,0.12-35.25-13.39-37.28-31.31
		l-15.64-137.64C1157.81,1156.78,1168.88,1143.97,1184.03,1142.62z"/>
	<g class="st3">
		<path class="st4" d="M1575.59,1189.57c-16.45-0.14-26.27,13.42-21.85,30.12l11.03,41.59c4.43,16.7,21.5,30.14,37.94,29.86
			l953.59-15.92c16.44-0.28,29.4-14.69,28.79-32.01l-0.47-13.64c-0.6-17.34-14.55-31.62-30.99-31.77L1575.59,1189.57z"/>
	</g>
	
		<linearGradient id="SVGID_4_" gradientUnits="userSpaceOnUse" x1="16971.3613" y1="37977.5" x2="18005.6016" y2="40480.8359" gradientTransform="matrix(1 -0.0153 -0.0153 -1 1230.6606 -1913.1813)">
		<stop  offset="0" style="stop-color:#FE7062"/>
		<stop  offset="1" style="stop-color:#FF928E"/>
	</linearGradient>
	<path class="st6" d="M1192.71,1169.54L1192.71,1169.54c14.34-9.19,33.04-4.16,41.43,11.16l39.47,72.07
		c3.95,7.22,14.01,6.59,17.14-1.06l92.19-225.55c4.6-11.25,20.42-7.74,20.42,4.51c-0.01,68.53-15.39,199.03-117.61,309.75
		c0,0-57.5-22.5-105.05-128.39C1173.83,1196.71,1178.99,1178.34,1192.71,1169.54z"/>
	<path class="st4" d="M1387.76,2273.77c-0.18,0-0.36,0.01-0.54,0.01l-194.94,1.28c-28.09,0.18-51.56-19.83-54.6-46.55l-19.57-172.23
		c-1.16-10.25,1.71-20.45,8.11-28.72c7.13-9.24,18.05-15.14,29.92-16.2l0,0c16.42-1.45,39.04-3.87,63.92-6.53
		c54.17-5.78,115.59-12.33,151.7-13.42c0.26,0,0.53-0.02,0.79-0.02c25.84-0.43,48.31,15.82,54.81,39.75
		c10.73,39.5,10.89,114.52,10.09,194.45C1437.21,2251.81,1414.96,2273.32,1387.76,2273.77z M1157.47,2028.09
		c-7.6,0.67-14.49,4.33-18.93,10.07c-3.63,4.69-5.28,10.42-4.64,16.1l19.57,172.25c2.07,18.25,18.72,31.91,38.72,31.78l194.94-1.28
		c0.12,0,0.25,0,0.38-0.01c18.63-0.31,33.87-14.4,34.04-31.56c0.79-78.63,0.66-152.32-9.48-189.65
		c-4.5-16.54-21.61-28.37-39.88-27.58c-35.53,1.06-99.31,7.87-150.55,13.32C1196.67,2024.2,1173.96,2026.61,1157.47,2028.09
		L1157.47,2028.09z"/>
	<path class="st2" d="M1178.65,2045.06c40.9-3.64,129.76-14.65,171.96-15.91c17.88-0.53,33.73,10.61,38.15,26.89
		c8.59,31.64,8.41,94.99,7.82,153.48c-0.18,17.52-15.22,31.75-33.84,31.86l-155.78,1.01c-19.16,0.12-35.25-13.39-37.28-31.3
		l-15.64-137.64C1152.42,2059.22,1163.49,2046.4,1178.65,2045.06z"/>
	<g class="st3">
		<path class="st4" d="M1570.22,2092.01c-16.45-0.14-26.27,13.41-21.85,30.12l11.03,41.59c4.43,16.7,21.5,30.14,37.94,29.86
			l953.6-15.92c16.44-0.28,29.39-14.69,28.79-32.01l-0.47-13.64c-0.6-17.34-14.55-31.62-30.99-31.77L1570.22,2092.01z"/>
	</g>
	
		<linearGradient id="SVGID_5_" gradientUnits="userSpaceOnUse" x1="17271.2578" y1="37847.8633" x2="18305.4785" y2="40351.1602" gradientTransform="matrix(1 -0.0153 -0.0153 -1 1230.6606 -1913.1813)">
		<stop  offset="0" style="stop-color:#FE7062"/>
		<stop  offset="1" style="stop-color:#FF928E"/>
	</linearGradient>
	<path class="st7" d="M1187.33,2071.97L1187.33,2071.97c14.34-9.19,33.04-4.16,41.43,11.16l39.47,72.07
		c3.95,7.22,14.01,6.59,17.14-1.08l92.19-225.55c4.6-11.25,20.42-7.73,20.42,4.51c-0.01,68.51-15.4,199.01-117.61,309.75
		c0,0-57.5-22.5-105.05-128.39C1168.45,2099.14,1173.6,2080.76,1187.33,2071.97z"/>
	<path class="st4" d="M1375.47,2697.27c-0.17,0-0.34,0.01-0.51,0.01l-194.94,1.28c-28.09,0.19-51.56-19.82-54.6-46.55l-19.57-172.23
		c-1.16-10.25,1.72-20.45,8.11-28.71c7.13-9.24,18.05-15.14,29.92-16.21l0,0c16.41-1.45,39-3.86,63.86-6.52
		c51.52-5.5,115.64-12.33,151.77-13.42c25.64-0.55,49.04,15.54,55.6,39.72c10.73,39.51,10.89,114.52,10.09,194.45
		C1424.93,2675.3,1402.67,2696.81,1375.47,2697.27z M1145.2,2451.56c-7.6,0.67-14.51,4.35-18.93,10.08
		c-3.63,4.71-5.28,10.42-4.63,16.09l19.57,172.23c2.07,18.26,18.72,31.93,38.72,31.78l194.94-1.26
		c18.37-0.64,34.25-14.3,34.43-31.58c0.79-78.63,0.66-152.31-9.48-189.65c-4.5-16.53-21.61-28.16-39.88-27.58
		c-35.56,1.05-99.35,7.86-150.62,13.33C1184.37,2447.68,1161.68,2450.1,1145.2,2451.56L1145.2,2451.56z"/>
	<path class="st2" d="M1166.38,2468.53c40.9-3.63,129.76-14.65,171.96-15.91c17.88-0.53,33.73,10.61,38.15,26.89
		c8.59,31.64,8.41,94.99,7.82,153.48c-0.18,17.52-15.22,31.75-33.84,31.86l-155.78,1.03c-19.16,0.12-35.25-13.39-37.28-31.31
		l-15.64-137.64C1140.16,2482.7,1151.21,2469.89,1166.38,2468.53z"/>
	<g class="st3">
		<path class="st4" d="M1557.94,2515.49c-16.45-0.14-26.27,13.41-21.83,30.12l11.03,41.59c4.43,16.7,21.5,30.14,37.94,29.86
			l953.6-15.92c16.44-0.28,29.4-14.69,28.79-32.01l-0.47-13.64c-0.6-17.34-14.55-31.62-30.99-31.77L1557.94,2515.49z"/>
	</g>
	
		<linearGradient id="SVGID_6_" gradientUnits="userSpaceOnUse" x1="17403.6953" y1="37790.5938" x2="18437.9336" y2="40293.9258" gradientTransform="matrix(1 -0.0153 -0.0153 -1 1230.6606 -1913.1813)">
		<stop  offset="0" style="stop-color:#FE7062"/>
		<stop  offset="1" style="stop-color:#FF928E"/>
	</linearGradient>
	<path class="st8" d="M1175.05,2495.45L1175.05,2495.45c14.34-9.19,33.04-4.16,41.43,11.16l39.47,72.07
		c3.95,7.22,14.01,6.58,17.14-1.08l92.19-225.55c4.6-11.25,20.42-7.74,20.42,4.51c-0.01,68.51-15.4,199.01-117.61,309.75
		c0,0-57.5-22.5-105.05-128.39C1156.18,2522.63,1161.34,2504.24,1175.05,2495.45z"/>
	<path class="st4" d="M1359.51,3134.04c-0.17,0-0.36,0.01-0.54,0.01l-194.94,1.28c-28.09,0.19-51.56-19.83-54.6-46.55l-19.57-172.25
		c-1.16-10.24,1.71-20.45,8.11-28.71c7.13-9.24,18.05-15.14,29.92-16.2l0,0c16.42-1.45,39.04-3.87,63.92-6.53
		c54.17-5.78,115.59-12.33,151.7-13.42c26.48-0.07,49.04,15.56,55.61,39.72c10.73,39.51,10.89,114.53,10.09,194.46
		C1408.95,3112.08,1386.7,3133.58,1359.51,3134.04z M1129.21,2888.35c-7.61,0.67-14.51,4.33-18.93,10.06
		c-3.63,4.69-5.28,10.42-4.64,16.1l19.57,172.25c2.07,18.25,18.72,31.91,38.72,31.78l194.94-1.28c0.12,0,0.25,0,0.38-0.01
		c18.63-0.31,33.87-14.4,34.04-31.56c0.79-78.63,0.66-152.32-9.48-189.66c-4.5-16.54-21.6-27.95-39.88-27.58
		c-35.55,1.06-99.31,7.87-150.55,13.32C1168.42,2884.45,1145.72,2886.88,1129.21,2888.35L1129.21,2888.35z"/>
	<path class="st2" d="M1150.4,2905.31c40.9-3.63,129.76-14.65,171.96-15.91c17.88-0.53,33.73,10.6,38.15,26.89
		c8.59,31.64,8.41,94.99,7.82,153.48c-0.18,17.52-15.22,31.75-33.84,31.86l-155.78,1.03c-19.16,0.12-35.25-13.39-37.3-31.31
		l-15.64-137.64C1124.18,2919.47,1135.23,2906.66,1150.4,2905.31z"/>
	<g class="st3">
		<path class="st4" d="M1541.96,2952.26c-16.45-0.14-26.27,13.41-21.85,30.12l11.03,41.59c4.43,16.7,21.5,30.14,37.94,29.86
			l953.6-15.92c16.44-0.28,29.4-14.69,28.79-32.01l-0.47-13.64c-0.6-17.34-14.55-31.62-30.99-31.77L1541.96,2952.26z"/>
	</g>
	
		<linearGradient id="SVGID_7_" gradientUnits="userSpaceOnUse" x1="17537.4277" y1="37732.7969" x2="18571.666" y2="40236.1289" gradientTransform="matrix(1 -0.0153 -0.0153 -1 1230.6606 -1913.1813)">
		<stop  offset="0" style="stop-color:#FE7062"/>
		<stop  offset="1" style="stop-color:#FF928E"/>
	</linearGradient>
	<path class="st9" d="M1159.07,2932.22L1159.07,2932.22c14.34-9.19,33.04-4.16,41.43,11.16l39.47,72.07
		c3.95,7.22,14.01,6.59,17.14-1.08l92.19-225.55c4.6-11.25,20.42-7.74,20.42,4.51c-0.01,68.51-15.4,199.01-117.61,309.75
		c0,0-57.5-22.5-105.05-128.39C1140.2,2959.4,1145.36,2941.03,1159.07,2932.22z"/>
</g>
<linearGradient id="SVGID_8_" gradientUnits="userSpaceOnUse" x1="2183.738" y1="676.3271" x2="1295.2396" y2="-492.4714" gradientTransform="matrix(1 8.751947e-03 -8.751947e-03 1 14.8633 -17.9589)">
	<stop  offset="0" style="stop-color:#09005D"/>
	<stop  offset="1" style="stop-color:#1A0F91"/>
</linearGradient>
<path class="st10" d="M1970.97,134.28c-61.79-47.01-116.21-47.05-154.69-35.8c-35.11,10.27-58.34,45.44-55.65,83.76l13.36,190.43
	l196.19,21.82C1970.17,394.52,2092.15,226.47,1970.97,134.28z M1882.01,286.18c-27.06-0.47-48.61-24-48.13-52.55
	c0.47-28.55,22.8-51.31,49.86-50.84s48.61,24,48.13,52.55C1931.4,263.9,1909.07,286.66,1882.01,286.18z"/>
<linearGradient id="SVGID_9_" gradientUnits="userSpaceOnUse" x1="1047.8461" y1="-1803.774" x2="243.9831" y2="-2861.2366" gradientTransform="matrix(0.9999 0.0171 0.0171 -0.9999 1202.6711 -1852.7747)">
	<stop  offset="0" style="stop-color:#09005D"/>
	<stop  offset="1" style="stop-color:#1A0F91"/>
</linearGradient>
<path class="st11" d="M1465.23,501.09l1.59-95.6c0.54-33,26.9-58.98,58.15-57.3l624.37,33.49c27.71,1.48,49.79,24.96,50.96,54.21
	l3.7,91.95L1465.23,501.09z"/>
<path class="st12" d="M3081.11,392.12c-1.63-0.05-2.92-1.47-2.9-3.19c0.03-1.74,1.39-3.12,3.03-3.08l14.13,0.24
	c1.72,0.05,2.96,1.46,2.92,3.19c-0.03,1.74-1.39,3.12-3.03,3.08l-14.13-0.24L3081.11,392.12z"/>
<linearGradient id="SVGID_10_" gradientUnits="userSpaceOnUse" x1="946.6089" y1="-1873.0786" x2="391.4838" y2="-2892.4004" gradientTransform="matrix(0.9999 0.0171 0.0171 -0.9999 1202.6711 -1852.7747)">
	<stop  offset="0" style="stop-color:#09005D"/>
	<stop  offset="1" style="stop-color:#1A0F91"/>
</linearGradient>
<path class="st13" d="M1270.06,462.68l1092.5,19.05c39.28,0.69,72.37,31.1,78.4,72.05l0.83,5.64c6.59,44.86-26.73,85.2-69.75,84.46
	l-1120.84-19.58c-25.75-0.45-45.89-23.52-44.22-50.64l3.29-52.88C1212.34,487.71,1238.64,462.13,1270.06,462.68z"/>
</svg>
