<?xml version="1.0" encoding="utf-8"?>
<!-- Generator: Adobe Illustrator 23.0.6, SVG Export Plug-In . SVG Version: 6.00 Build 0)  -->
<svg version="1.1" id="Vrstva_1" xmlns="http://www.w3.org/2000/svg" xmlns:xlink="http://www.w3.org/1999/xlink" x="0px" y="0px"
	 viewBox="0 0 3710 3710" style="enable-background:new 0 0 3710 3710;" xml:space="preserve">
<style type="text/css">
	.st0{fill:url(#SVGID_1_);}
	.st1{fill:#91B3FA;}
	.st2{opacity:0.31;fill:#FFFFFF;enable-background:new    ;}
	.st3{fill-rule:evenodd;clip-rule:evenodd;fill:#FFFFFF;}
	.st4{fill:url(#SVGID_2_);}
	.st5{fill:url(#SVGID_3_);}
	.st6{fill:url(#SVGID_4_);}
	.st7{fill:#FFFFFF;}
	.st8{fill:url(#SVGID_5_);}
	.st9{fill:url(#SVGID_6_);}
	.st10{fill:url(#SVGID_7_);}
	.st11{opacity:0.25;fill:#FFFFFF;enable-background:new    ;}
	.st12{opacity:0.78;fill:#FFFFFF;enable-background:new    ;}
	.st13{fill:url(#SVGID_8_);}
	.st14{fill:url(#SVGID_9_);}
	.st15{fill:url(#SVGID_10_);}
	.st16{fill:url(#SVGID_11_);}
	.st17{fill:url(#SVGID_12_);}
</style>
<g id="Background">
</g>
<g id="Illustration">
	<g>
		<g>
			<g>
				
					<linearGradient id="SVGID_1_" gradientUnits="userSpaceOnUse" x1="1879.156" y1="246.2648" x2="1879.156" y2="2386.8027" gradientTransform="matrix(1 0 0 -1 0 3710)">
					<stop  offset="0" style="stop-color:#09005D"/>
					<stop  offset="1" style="stop-color:#1A0F91"/>
				</linearGradient>
				<path class="st0" d="M360.96,1110.35v1486.02c0,122.25,97.41,222.21,219.62,225.37c542.77,14,2127.03,47.94,2643.71,40.31
					c88.8-1.31,160.74-72.38,163.31-161.15c9.96-345.23,26.14-1175.37-33.74-1560.76c-12.61-81.16-81.12-141.86-163.22-144.48
					c-454.77-14.54-2153.06-60.75-2669.49-49.15C432.08,948.49,360.96,1021.25,360.96,1110.35z"/>
				<path class="st1" d="M454.2,1107.04v1467.02c0,74.16,57.3,134.59,128.66,135.7l2567.09,36.98
					c70.75,1.09,128.75-58.04,129.01-131.58l4.83-1453.91c0.19-52.58-40.11-95.65-90.71-96.93l-2635.71-61.92
					C500.8,1000.98,454.2,1048.25,454.2,1107.04z"/>
			</g>
		</g>
		<g>
			<path class="st2" d="M3072.86,2685.8l-2461.11-28.3c-53.14,1.29-96.57-55.36-96.23-125.54l6.27-1246.91
				c5.43-132.31,64.12-191.73,116.45-191.46l2435.54,79.2c52.33,0.27,94.47,56.47,94.12,125.55l-5.91,1174.82
				C3161.64,2541.16,3124.36,2684.55,3072.86,2685.8z"/>
			<g>
				<path class="st3" d="M2297.43,1351.31l119.34,0.6c4.03,0.03,7.31,2.91,7.37,6.49l0.89,49.54c0.07,4.04,4.19,7.08,8.65,6.4
					l218.23-33.2c0.43-0.07,0.85-0.09,1.29-0.09l149.95,0.76c0.37,0,0.75-0.03,1.11-0.07l169.55-21.96
					c2.07-0.27,4.16,0.25,5.77,1.44l37.29,27.34c3.09,2.27,3.6,6.31,1.15,9.12l-46.05,52.87c-1.32,1.52-1.83,3.47-1.4,5.35
					l20.01,87.13c0.32,1.39,0.12,2.84-0.56,4.12l-71.14,134.26c-2.36,4.44-9.15,5.11-12.53,1.23l-41.59-47.59
					c-1.33-1.53-1.85-3.51-1.4-5.4l18-76.64c1.55-6.57-7.65-10.75-12.72-5.79l-44.47,43.55c-0.84,0.83-1.91,1.44-3.09,1.8
					l-51.49,15.57c-1.77,0.53-3.25,1.65-4.13,3.12l-25.34,42.02c-2.43,4.04,0.39,9,5.49,9.64l57.9,7.33
					c3.52,0.44,6.19,3.05,6.36,6.21l7.31,134.77c0.12,2.11-0.91,4.13-2.76,5.45l-54.67,38.99c-2.52,1.8-3.44,4.85-2.25,7.55
					l12.5,28.36c1.83,4.13-1.37,8.65-6.36,8.97l-14.88,0.93c-2.51,0.16-4.92-0.83-6.44-2.6l-42.3-49.81
					c-3.68-4.32-11.32-3.08-13.01,2.13l-4.51,13.84c-0.52,1.61-0.33,3.35,0.52,4.84l41.25,71.55c1.45,2.52,0.93,5.59-1.29,7.61
					l-73.3,66.78c-3.53,3.23-8.77,4.45-13.64,3.2l-12.9-3.31c-7.16-1.84-14.65,1.73-16.9,8.05l0,0c-1.33,3.73-0.57,7.8,2.03,10.96
					l37.39,45.38c4.09,4.97,3.41,11.88-1.61,16.12l-20.74,17.52c-5.39,4.55-13.88,4.47-19.16-0.2l-115.18-101.6
					c-5.39-4.75-14.05-4.73-19.41,0.03l-62.08,55.15c-1.83,1.63-3.11,3.68-3.69,5.93l-5.16,20.13c-2.6,10.12-17.29,12.94-24.36,4.68
					l-96.71-113c-2.61-3.05-6.45-5.08-10.72-5.64l-66.88-8.95c-1.92-0.25-3.79-0.81-5.49-1.65l-27.58-13.44
					c-7.68-3.75-16.3,3.35-12.72,10.45l6.25,12.4c2.29,4.55,7,7.75,12.52,8.52l46.58,6.55c5.91,0.83,10.85,4.43,12.93,9.41
					l2.28,5.45c2.72,6.52-0.04,13.84-6.63,17.56l-103.26,58.27c-4.64,2.61-10.81,1.03-13.16-3.4l-61.71-116.09
					c-2.01-3.79-6.93-5.6-11.36-4.19l0,0c-5.08,1.63-7.47,6.8-5.15,11.13l52.49,98.28c8.87,16.61,29.65,25.38,49.7,20.97l8.73-1.92
					c12.64-2.77,23.77,7.93,19.68,18.93l-13.25,35.63c-1.01,2.71-2.88,5.09-5.39,6.88l-47.45,33.62
					c-10.98,7.79-17.05,19.81-16.29,32.3l2.39,39.38c0.71,11.72-4.6,23.09-14.42,30.9l-19.09,15.16
					c-8.25,6.56-12.44,16.25-11.24,26.05l0.97,7.97c1.19,9.69-2.91,19.29-11,25.84l-72.46,58.72c-8.23,6.67-19.56,9.36-30.44,7.24
					l-14.05-2.75c-11.84-2.31-21.44-10.01-25.25-20.25l-39.94-107.24c-4.32-11.58-0.47-24.34,9.79-32.44l0,0
					c10.12-7.99,14.01-20.53,9.93-32.02l-22.09-62.19c-7.71-21.7-32.8-34.57-57.74-29.6l-57.11,11.36
					c-4.71,0.93-9.64-0.21-13.22-3.08l-80.45-64.15c-3.19-2.53-4.99-6.16-4.97-9.96l0.37-74.66c0.11-20.1,8.21-39.5,22.89-54.77
					l9.89-10.29c18.37-19.1,44.23-31.24,72.34-33.93l57.87-5.56l39.06-4.29c7.71-0.85,14.86,3.71,16.46,10.48l2.68,11.37
					c0.95,4.04,3.96,7.45,8.13,9.25l55.94,24.02l6.97-22.84l102.25,10.68l1.65-26.32c0.25-4.03-2.84-7.61-7.28-8.43l-43.69-8.05
					l-18.37-35.53l-33.17-7.17l14.69,43.43l-26.12-28.48l-36.33-33.42c-5.2-4.79-13.58-5.41-19.6-1.45l0,0
					c-7.21,4.75-8.12,14.04-1.95,19.82l33.75,31.65l-19.94-0.04c-3.65-0.01-7.17-1.2-9.89-3.36l-39.5-31.26
					c-6.12-4.84-15.45-4.4-20.96,0.97l-32.62,31.89c-2.23,2.17-5.2,3.63-8.45,4.13l-26.09,4.07c-8.07,1.25-15.77-3.51-17.26-10.68
					l-5.47-26.17c-1.8-8.6,6.08-16.37,15.88-15.65l18.89,1.37c10.75,0.79,18.84-8.51,15.3-17.57l-8.64-22.21
					c-2.21-5.69,0.15-12,5.76-15.36l65.42-39.19l98.73-6.64l19.17-56.78l-25.24-8.2l9.19-50.39l-18.97,1.76l-23.4,42.22l1.57,46.74
					l-29.14,9.68l-15.38-35.7l-24.4,13.88l-12.81-46.46c-0.12-0.43-0.01-0.88,0.27-1.23l97.77-120.25l129.29,34.74l1.36,20.54
					l-33.53,13.37l-2.03,31.65l54.78-38.94l77.97-37.95l1.73-25l35.15-0.03c1.43,0,2.81,0.36,4.01,1.05l13.09,7.49
					c5.89,3.37,13.26-1.76,11-7.67l-14.58-38.01c-0.77-2-0.41-4.2,0.96-5.93l12.7-16c1.55-1.95,4.17-3,6.84-2.75l32.02,3.11
					c1.36,0.13,2.65,0.6,3.75,1.35l4.01,2.77c6.09,4.21,14.45-1.64,11.28-7.89l0,0c-1.95-3.85,0.63-8.32,5.28-9.16l14.96-2.68
					c6.35-1.13,8.11-8.47,2.83-11.81l-7.77-4.93c-3.88-2.47-4.17-7.49-0.61-10.29l37.82-29.82c0.67-0.53,1.44-0.95,2.28-1.23
					l31.65-10.67c4.12-1.39,5.97-5.65,3.96-9.16l-2.96-5.16c-1.59-2.76-5.11-4.16-8.47-3.37l-29.61,6.89
					c-4.87,1.13-9.56-2.28-9.27-6.75l0.65-10.28C2290.23,1354.02,2293.49,1351.28,2297.43,1351.31z"/>
				<path class="st3" d="M2824.15,2249.43l-68.7,22.24c-3.07,0.99-5.64,2.92-7.25,5.44l-20.22,31.62c-1.81,2.84-4.83,4.91-8.37,5.76
					l-61.63,14.77c-6.63,1.59-10.92,7.28-10.07,13.34l11.25,79.49c0.32,2.25-0.08,4.55-1.13,6.63l-9.17,17.85
					c-3.65,7.12,1.04,15.44,9.64,17.08l11.26,2.15c2.8,0.53,5.72,0.28,8.35-0.73l99.47-38.26c6.16-2.37,13.34-0.44,17.01,4.57
					l22.98,31.45c0.67,0.91,1.47,1.73,2.37,2.45l35.82,28.5c2.96,2.36,6.92,3.45,10.85,3.03l57.94-6.31
					c6.72-0.73,11.84-5.71,12.06-11.73l0.95-24.9c0.09-2.4,0.97-4.71,2.53-6.67l35.74-44.83c1.64-2.05,2.52-4.51,2.53-7.03
					l0.17-34.63c0.01-3.31-1.47-6.48-4.12-8.8l-47.82-41.85c-1.67-1.47-2.89-3.28-3.56-5.28l-8.77-26.46
					c-3.85-11.64-22.32-11.76-26.34-0.19l-3.17,9.13c-2.83,8.13-13.9,11.26-21.5,6.09l-10.86-7.4c-5.23-3.56-6.89-9.92-3.97-15.17
					l0.13-0.25c3.12-5.61,0.99-12.41-4.96-15.77l-7.36-4.16C2832.64,2248.57,2828.17,2248.13,2824.15,2249.43z"/>
				<path class="st3" d="M2807.06,2171.92l-1.51,4.44c-1.64,4.8,0.19,10,4.59,13.13l39.42,28.04c1.71,1.21,3.72,2.05,5.87,2.44
					l74.71,13.48c0.76,0.13,1.49,0.33,2.21,0.57l9.75,3.35c12.18,4.17,23.44-7.68,16.77-17.66l-3.91-5.87
					c-1.53-2.29-3.87-4.09-6.65-5.09l-122.87-44.58C2817.91,2161.41,2809.42,2165.01,2807.06,2171.92z"/>
				<path class="st3" d="M2686.02,2122.79c-9.79,9.69-22.98,22.66-30.42,29.98c-3.52,3.45-4.52,8.39-2.59,12.73l16.33,36.69
					c2.53,5.71,9.43,8.87,16.12,7.39l25.16-5.53c4.71-1.04,8.44-4.2,9.85-8.32l10.03-29.38c1.12-3.28,0.65-6.81-1.31-9.77
					c-4.72-7.12-13.97-21.05-21.09-31.77C2703.34,2117.67,2692.23,2116.65,2686.02,2122.79z"/>
				<path class="st3" d="M2558.73,2127.63l56.94,64.32c0.17,0.2,0.36,0.4,0.55,0.59l35.07,34.93c2.37,2.36,5.68,3.81,9.21,4.05
					l67.46,4.61l-0.41,1.13c-1.76,4.88-6.73,8.27-12.48,8.49l-94.27,3.72c-4.85,0.19-9.47-1.91-12.13-5.53l-74.03-100.58
					c-3.69-5.01-2.77-11.65,2.17-15.7l1.77-1.45C2544.48,2121.35,2553.76,2122.02,2558.73,2127.63z"/>
				<path class="st3" d="M1189.97,2065.87l-17.12,22.1c-2.37,3.07-6.6,4.53-10.68,3.69l-32-6.51c-4.67-0.95-7.97-4.65-7.96-8.92
					l0.11-20.36c0.03-4.88-4.28-8.91-9.75-9.13l-18.49-0.77c-7.52-0.32-12.1-7.52-8.53-13.41l20-32.98l-31.09-9.27
					c0,0-23.57,33.77-28.25,33.9c-4.69,0.15-35.38-42.82-35.38-42.82l38.82-43.63l59.6-1.28l28.37,36.78l18.06-59.23l66.56-44.55
					l131.47-82.17c0.95-0.6,1.71-1.4,2.2-2.33l24.61-47.06c1.09-2.08,0.72-4.55-0.95-6.31l-38.78-40.87
					c-0.88-0.93-1.41-2.08-1.55-3.28l-2.24-22.17c-0.59-5.8-9.25-7.44-12.41-2.35l0,0c-2.29,3.69-8.09,4.11-11.03,0.77l-26.16-29.65
					c-5.68-6.43-16.56-6.59-22.45-0.32l-33.45,35.57c-0.95,1-1.71,2.12-2.27,3.33l-14.65,31.52c-4.8,10.33-21.12,10.64-26.45,0.51
					l-0.77-1.47c-1.41-2.69-3.8-4.85-6.8-6.13c-14.34-6.15-57.3-25.21-57.52-32.98c-0.24-8.05,28.9-52.45,36.85-64.4
					c1.31-1.96,3.15-3.55,5.39-4.65l55.91-27.66c0.23-0.12,0.47-0.23,0.71-0.33l52.87-22.86c5.21-2.25,8.4-7.07,8.11-12.22
					l-0.73-12.57c-0.47-7.96-8.85-13.62-17.58-11.9l-25.38,5.04c-2.48,0.49-4.76,1.55-6.63,3.08l-11.34,9.28
					c-6.96,5.69-18.09,3.99-22.54-3.44l-15.78-26.42c-4.07-6.81-13.89-8.93-21.01-4.55l-21.57,13.32c-3.63,2.24-8.2,2.88-12.42,1.73
					l-72.92-19.65c-1.47-0.4-2.85-1-4.12-1.79l-62.43-38.97c-3.47-2.16-7.83-2.87-11.92-1.92l-49.17,11.3
					c-4.67,1.07-9.61,0-13.21-2.84l-84.56-66.83c-3.63-2.87-8.59-3.93-13.26-2.83c-15.89,3.76-52.97,12.32-68.35,14.1
					c-15.53,1.8-32.41,20.18-39.02,28.1c-1.8,2.16-2.03,5.01-0.61,7.4l7.15,11.97c2.52,4.21-0.37,9.37-5.67,10.12l-26.4,3.72
					c-5.47,0.77-8.32,6.21-5.47,10.44l6.19,9.19c0.99,1.47,1.33,3.2,0.97,4.88l-4.89,22.92c-0.83,3.91-5.16,6.39-9.51,5.45
					l-25.26-5.43c-5.09-1.09-9.92,2.49-9.63,7.13l2.21,35.43c0.09,1.41,0.65,2.76,1.63,3.88l21.01,24.13
					c2.87,3.29,1.89,8.05-2.11,10.2c-20.7,11.14-76.88,41.34-71.35,37.85c6.77-4.28,68.39,1.15,68.95-8.31
					c0.55-9.45,41.49-18.37,44.34-21.64c2.15-2.45,17.65-22.41,25.22-32.18c2.33-3.01,6.91-3.89,10.44-2.01l62.22,33.14
					c3.97,2.12,6.57,5.8,6.99,9.92l6.75,67.83c0.19,1.91,0.85,3.75,1.95,5.39l26.56,40.18l30.56,50.91
					c1.91,3.19,2.23,6.93,0.89,10.32l-16.85,42.65c-12.69,32.13-9.88,67.51,7.73,97.77c14.34,24.64,29.06,50.13,29.9,52.43
					c0.28,0.76,1.16,2.15,2.45,3.93c12.53,17.38,30.45,31.18,51.25,40.37l96.59,42.63c0.43,0.19,0.83,0.4,1.23,0.64l71.08,43.17
					c0.68,0.41,1.31,0.91,1.85,1.45l11.89,11.82c2.33,2.32,5.84,3.41,9.29,2.91l0,0c8.01-1.19,14.3,6.04,11.03,12.65l-18.89,38.05
					c-0.77,1.55-1.04,3.27-0.77,4.95l11.85,74.39c0.32,2.03,1.4,3.89,3.07,5.31l50.63,42.95c1.51,1.27,2.53,2.92,2.96,4.73
					l17.56,74.7c0.11,0.44,0.17,0.88,0.2,1.32l13.66,205.89c0.17,2.71,1.71,5.2,4.16,6.8l47.05,30.78c1.95,1.27,4.33,1.89,6.73,1.75
					l16.32-0.97c8.79-0.52,12.74-10.03,6.49-15.53l-15.76-13.88c-1.8-1.59-2.88-3.71-3.01-5.96l-1.24-19.5
					c-0.01-0.19-0.01-0.37-0.01-0.55l0.17-35.82c0-0.56,0.07-1.12,0.19-1.67l5.89-27.44c0.04-0.17,0.07-0.33,0.09-0.51l2.87-19.21
					c0.48-3.17,2.8-5.89,6.11-7.16l40.3-15.32c5.23-1.99,7.61-7.39,5.33-12.01l-5.21-10.56c-2.55-5.16,0.73-11.11,6.87-12.47
					l15.8-3.52c2.55-0.57,4.75-1.99,6.16-3.96l32.78-46.25c2.2-3.11,2.08-7.08-0.28-10.08l-0.68-0.85
					c-4.24-5.37-0.89-12.85,6.35-14.14l18.26-3.25c3.65-0.65,6.63-3.03,7.75-6.2l26.78-76.27c0.41-1.19,1.11-2.29,2.03-3.24
					l37.99-39.02c3.96-4.07,3.11-10.28-1.84-13.38l-52.07-32.74c-1.85-1.16-4.08-1.75-6.33-1.65l-37.43,1.43
					c-2.45,0.09-4.85-0.6-6.79-1.96l-22.46-15.81c-2.39-1.68-3.81-4.21-3.88-6.92l-0.65-24.57c-0.11-3.92-3.03-7.35-7.24-8.49
					l-45.73-12.41c-1.24-0.33-2.4-0.88-3.41-1.6l-28.44-20.28c-2.89-2.05-6.8-2.57-10.23-1.33l-23.09,8.32
					c-2.79,1-5.93,0.87-8.6-0.39l-44.67-20.96C1198.57,2060.84,1192.9,2062.08,1189.97,2065.87z"/>
				<path class="st3" d="M1232.93,1472.77l5.96-25.66c1.21-5.2,5.88-9.2,11.76-10.07l41.99-6.24c3.28-0.49,6.67,0.05,9.56,1.52
					l51.75,26.33c3.48,1.77,4.43,5.87,2,8.71l-20.72,24.28c-1.72,2.03-1.8,4.8-0.19,6.91l29.48,38.45c0.89,1.17,1.29,2.59,1.12,3.99
					l-5.6,44.27c-0.11,0.87-0.44,1.71-0.95,2.45l-16.41,23.57c-1.51,2.17-4.41,3.23-7.2,2.63l-44.77-9.61
					c-0.72-0.16-1.43-0.36-2.11-0.61l-4.03-1.48c-11.54-4.23-12.05-18.61-0.84-23.46l8.39-3.63c5.59-2.41,8.81-7.72,8.01-13.2
					c-1.65-11.23-4.68-29.33-7.59-34.38c-2.55-4.44-4.16-15.01-5.04-22.88c-0.64-5.68-5.4-10.28-11.7-11.34l-31.38-5.28
					C1236.47,1486.69,1231.29,1479.81,1232.93,1472.77z"/>
				<path class="st3" d="M1052.68,1390.66l-19.28,14.1c-6,4.4-7.01,12.24-2.29,17.73l18.41,21.45c0.33,0.39,0.63,0.77,0.91,1.19
					l24.02,35.61c1.65,2.45,4.17,4.33,7.16,5.37l22.62,7.84c4.95,1.72,10.55,0.88,14.58-2.17l15.78-11.92
					c1.43-1.08,2.61-2.4,3.48-3.88l18.38-31.57c1.07-1.83,1.61-3.84,1.61-5.89l0,0c0.01-11.45-15.53-17.22-24.65-9.15l-0.99,0.87
					c-5.81,5.15-15.28,4.96-20.84-0.43l-39.11-37.9C1067.32,1386.86,1058.61,1386.32,1052.68,1390.66z"/>
				<path class="st3" d="M1447.77,1331.87l-69.84,50.05c-2.16,1.55-3,4.12-2.13,6.47l13.1,35.03c0.68,1.83,2.32,3.24,4.4,3.8
					l39.07,10.43c3.19,0.85,5.51,3.31,5.88,6.25l10.01,78.19c0.16,1.2-0.03,2.41-0.52,3.53l-23.73,54.09
					c-0.64,1.45-0.75,3.05-0.29,4.57l19.44,65.67c0.63,2.13,2.29,3.91,4.55,4.84l16.06,6.63c3.96,1.63,8.65,0.27,10.76-3.12
					l32.25-51.79c0.8-1.28,2.01-2.32,3.48-3l53.11-24.18c0.67-0.31,1.28-0.68,1.84-1.13l77.96-63.76c1.24-1.01,2.11-2.33,2.48-3.8
					l27.78-108.41c0.28-1.12,0.85-2.16,1.68-3.04l43.01-46.66c1.85-2.01,2.39-4.76,1.39-7.21l-4.91-12.02
					c-1.63-3.97-6.64-5.93-11.01-4.31l-24,8.89c-1.48,0.55-3.09,0.71-4.67,0.45l-14.77-2.37c-8.83-1.41-9.24-12.54-0.55-14.46l0,0
					c6.45-1.43,8.51-8.69,3.57-12.66l-5.28-4.25c-0.48-0.39-0.89-0.81-1.27-1.28l-18.88-24.28c-1.55-1.99-4.08-3.17-6.8-3.2
					l-53.47-0.27c-2.21-0.01-4.35,0.76-5.91,2.16l-30.2,26.78c-1.95,1.72-2.8,4.19-2.31,6.59l2.99,14.32
					c1.2,5.73-5.19,10.39-11.28,8.2l-16.96-6.09c-1.91-0.68-3.47-1.97-4.37-3.63l-4.92-8.97c-2.03-3.69-7.04-5.21-11.17-3.39
					l-44.1,19.5C1448.74,1331.25,1448.23,1331.54,1447.77,1331.87z"/>
				<path class="st3" d="M1320.79,1283.21l84.25-19.65c1.07-0.25,2.19-0.25,3.25-0.03l75.04,16.32c6.93,1.51,8.67,9.57,2.84,13.22
					l-11.09,6.97c-0.13,0.08-0.27,0.17-0.4,0.27l-102.53,73l-45.85,33.18c-3.28,2.37-7.57,3.35-11.73,2.67l-45.27-7.45
					c-4.6-0.76-9.31,0.51-12.66,3.4l-14.08,12.12c-7,6.03-18.58,4.28-22.97-3.48l-6.16-10.92c-0.25-0.45-0.48-0.92-0.67-1.39
					l-4.75-11.62c-2.73-6.71,1.17-14.09,8.71-16.49l27.64-8.77c3.48-1.11,7.32-0.99,10.71,0.35l20.88,8.23
					c3.64,1.44,7.79,1.47,11.45,0.09l0.48-0.17c8.96-3.35,11.7-13.46,5.47-20.1l-5.36-5.71c-3.75-3.99-4.44-9.6-1.73-14.2
					l25.42-43.37C1313.54,1286.49,1316.85,1284.13,1320.79,1283.21z"/>
				<path class="st3" d="M1115.71,1336.3l30.68-7.17c8.39-1.96,16.82,3.05,18.01,10.69l4.39,28.34c0.89,5.77-2.68,11.36-8.72,13.6
					l-26.01,9.69c-8.11,3.03-17.36-1.05-19.58-8.63l-9.07-30.86C1103.41,1345.11,1108.02,1338.1,1115.71,1336.3z"/>
			</g>
		</g>
	</g>
	
		<linearGradient id="SVGID_2_" gradientUnits="userSpaceOnUse" x1="1830.1364" y1="2291.1233" x2="1871.3588" y2="2291.1233" gradientTransform="matrix(1 0 0 -1 0 3710)">
		<stop  offset="0" style="stop-color:#4F52FF"/>
		<stop  offset="1" style="stop-color:#4042E2"/>
	</linearGradient>
	<path class="st4" d="M1860.01,2093.88c-6.2,0-11.25-4.97-11.34-11.19l-0.48-34.03c-0.08-6.27,4.92-11.41,11.18-11.5
		c0.05,0,0.11,0,0.16,0c6.19,0,11.25,4.97,11.34,11.19l0.48,34.03c0.08,6.27-4.92,11.41-11.18,11.5
		C1860.12,2093.88,1860.07,2093.88,1860.01,2093.88z M1859.07,2025.81c-6.2,0-11.25-4.97-11.34-11.18l-0.48-34.03
		c-0.08-6.27,4.92-11.41,11.19-11.51c6.31-0.09,11.41,4.92,11.5,11.19l0.48,34.03c0.08,6.27-4.92,11.41-11.19,11.5
		C1859.17,2025.81,1859.12,2025.81,1859.07,2025.81z M1858.11,1957.74c-6.2,0-11.25-4.97-11.34-11.19l-0.48-34.03
		c-0.08-6.27,4.92-11.41,11.18-11.5c0.05,0,0.11,0,0.16,0c6.19,0,11.25,4.97,11.34,11.18l0.48,34.03
		c0.08,6.27-4.92,11.41-11.18,11.51C1858.21,1957.74,1858.16,1957.74,1858.11,1957.74z M1857.16,1889.67
		c-6.2,0-11.25-4.97-11.34-11.19l-0.48-34.03c-0.08-6.27,4.92-11.41,11.18-11.5c0.05,0,0.11,0,0.16,0c6.2,0,11.25,4.97,11.34,11.18
		l0.48,34.03c0.08,6.27-4.92,11.41-11.18,11.51C1857.27,1889.67,1857.21,1889.67,1857.16,1889.67z M1856.21,1821.6
		c-6.2,0-11.25-4.97-11.34-11.18l-0.47-34.03c-0.08-6.27,4.92-11.41,11.18-11.51c0.05,0,0.11,0,0.16,0c6.2,0,11.25,4.97,11.34,11.19
		l0.47,34.03c0.08,6.27-4.92,11.41-11.19,11.5C1856.32,1821.6,1856.27,1821.6,1856.21,1821.6z M1855.25,1753.54
		c-6.19,0-11.25-4.97-11.34-11.19l-0.48-34.03c-0.08-6.27,4.92-11.41,11.18-11.5c6.16,0.04,11.41,4.92,11.5,11.18l0.48,34.03
		c0.08,6.27-4.92,11.41-11.19,11.51C1855.36,1753.54,1855.31,1753.54,1855.25,1753.54z M1854.31,1685.47
		c-6.2,0-11.25-4.97-11.34-11.19l-0.48-34.03c-0.08-6.27,4.92-11.41,11.18-11.5c6.27-0.21,11.41,4.92,11.51,11.19l0.48,34.03
		c0.08,6.27-4.92,11.41-11.18,11.51C1854.41,1685.47,1854.36,1685.47,1854.31,1685.47z M1853.36,1617.4
		c-6.2,0-11.25-4.97-11.34-11.19l-0.48-34.03c-0.08-6.27,4.92-11.41,11.19-11.51c6.4-0.05,11.41,4.92,11.5,11.19l0.48,34.03
		c0.08,6.27-4.92,11.41-11.19,11.5C1853.47,1617.4,1853.41,1617.4,1853.36,1617.4z M1852.4,1549.33c-6.19,0-11.25-4.97-11.34-11.18
		l-0.48-34.03c-0.08-6.27,4.92-11.41,11.19-11.51c0.05,0,0.11,0,0.16,0c6.2,0,11.25,4.97,11.34,11.19l0.48,34.03
		c0.08,6.27-4.92,11.41-11.19,11.5C1852.51,1549.33,1852.47,1549.33,1852.4,1549.33z M1851.45,1481.26
		c-6.2,0-11.25-4.97-11.34-11.18l-0.47-34.03c-0.08-6.27,4.92-11.41,11.18-11.51c6.21-0.15,11.41,4.92,11.51,11.19l0.47,34.03
		c0.08,6.27-4.92,11.41-11.19,11.5C1851.56,1481.26,1851.51,1481.26,1851.45,1481.26z M1850.51,1413.21
		c-6.19,0-11.25-4.97-11.34-11.18l-0.48-34.03c-0.08-6.27,4.92-11.41,11.19-11.51c0.05,0,0.11,0,0.16,0
		c6.19,0,11.25,4.97,11.34,11.19l0.48,34.03c0.08,6.27-4.92,11.41-11.18,11.5C1850.61,1413.21,1850.56,1413.21,1850.51,1413.21z
		 M1849.56,1345.14c-6.2,0-11.25-4.97-11.34-11.18l-0.48-34.03c-0.08-6.27,4.92-11.41,11.18-11.51c0.05,0,0.11,0,0.16,0
		c6.2,0,11.25,4.97,11.34,11.19l0.48,34.03c0.08,6.27-4.92,11.41-11.19,11.5C1849.67,1345.14,1849.61,1345.14,1849.56,1345.14z
		 M1848.6,1277.07c-6.2,0-11.25-4.97-11.34-11.19l-0.48-34.03c-0.08-6.27,4.92-11.41,11.18-11.5c6.15-0.08,11.41,4.92,11.51,11.18
		l0.48,34.03c0.08,6.27-4.92,11.41-11.18,11.51C1848.71,1277.07,1848.65,1277.07,1848.6,1277.07z M1847.65,1209
		c-6.2,0-11.25-4.97-11.34-11.19l-0.48-34.03c-0.08-6.27,4.92-11.41,11.18-11.5c0.05,0,0.11,0,0.16,0c6.19,0,11.25,4.97,11.34,11.18
		l0.48,34.03c0.08,6.27-4.92,11.41-11.18,11.51C1847.76,1209,1847.71,1209,1847.65,1209z M1846.69,1140.94
		c-6.2,0-11.25-4.97-11.34-11.19l-0.47-34.03c-0.08-6.27,4.92-11.41,11.19-11.51c6.37-0.17,11.41,4.92,11.5,11.19l0.47,34.03
		c0.08,6.27-4.92,11.41-11.18,11.5C1846.8,1140.94,1846.76,1140.94,1846.69,1140.94z M1845.75,1072.87
		c-6.2,0-11.25-4.97-11.34-11.18l-0.48-34.03c-0.08-6.27,4.92-11.41,11.18-11.5c0.05,0,0.11,0,0.16,0c6.2,0,11.25,4.97,11.34,11.18
		l0.48,34.03c0.08,6.27-4.92,11.41-11.19,11.5C1845.85,1072.87,1845.8,1072.87,1845.75,1072.87z M1844.8,1004.8
		c-6.19,0-11.25-4.97-11.34-11.18l-0.48-34.03c-0.08-6.27,4.92-11.41,11.18-11.5c0.05,0,0.11,0,0.16,0c6.2,0,11.25,4.97,11.34,11.18
		l0.48,34.03c0.08,6.27-4.92,11.41-11.18,11.5C1844.91,1004.8,1844.86,1004.8,1844.8,1004.8z M1843.86,936.73
		c-6.19,0-11.25-4.97-11.34-11.18l-0.48-34.03c-0.08-6.27,4.92-11.41,11.19-11.5c6.32-0.11,11.41,4.92,11.5,11.18l0.48,34.03
		c0.08,6.27-4.92,11.41-11.19,11.5C1843.96,936.73,1843.91,936.73,1843.86,936.73z M1842.9,868.68c-6.19,0-11.25-4.97-11.34-11.18
		l-0.48-34.03c-0.08-6.27,4.92-11.41,11.19-11.5c6.23,0,11.41,4.92,11.5,11.18l0.48,34.03c0.08,6.27-4.92,11.41-11.19,11.5
		C1843,868.68,1842.96,868.68,1842.9,868.68z M1841.95,800.61c-6.2,0-11.25-4.97-11.34-11.18l-0.47-34.03
		c-0.08-6.27,4.92-11.41,11.18-11.5c6.13-0.2,11.41,4.92,11.51,11.18l0.47,34.03c0.08,6.27-4.92,11.41-11.19,11.5
		C1842.06,800.61,1842,800.61,1841.95,800.61z"/>
	<g>
		<g>
			<g>
				
					<linearGradient id="SVGID_3_" gradientUnits="userSpaceOnUse" x1="1970.1875" y1="1894.1941" x2="2429.6611" y2="2455.7729" gradientTransform="matrix(1 0 0 -1 0 3710)">
					<stop  offset="0" style="stop-color:#4F52FF"/>
					<stop  offset="1" style="stop-color:#4042E2"/>
				</linearGradient>
				<circle class="st5" cx="1870.41" cy="1937.75" r="147.88"/>
				
					<linearGradient id="SVGID_4_" gradientUnits="userSpaceOnUse" x1="2005.6642" y1="1865.1677" x2="2465.1379" y2="2426.7471" gradientTransform="matrix(1 0 0 -1 0 3710)">
					<stop  offset="0" style="stop-color:#4F52FF"/>
					<stop  offset="1" style="stop-color:#4042E2"/>
				</linearGradient>
				<path class="st6" d="M2018.02,1929.84H1870.4h-147.88c0,0-11.77,82.08,120.21,306.9c5.76,9.81,16.28,15.66,27.65,15.68
					c11.37,0,21.92-5.76,27.68-15.57C2030.03,2012,2018.02,1929.84,2018.02,1929.84z"/>
			</g>
			<g>
				<g>
					<path class="st1" d="M1870.34,2257.21v0.83h0.04c-12.88,0-24.89-7.08-31.36-18.1c-77.15-131.42-105.41-214.51-115.54-261
						c-2.89-10.69-4.55-21.18-5.07-31.93c-0.89-11-0.21-15.62-0.13-16.12l0.39-2.36c5.96-79.44,72.07-141.26,151.72-141.26
						c80.71,0,147.42,62.7,151.92,142.77c0.12,1.05,0.33,3.71,0.24,8.15v0.55c0,14.53-2.05,28.92-6.09,42.77
						c-10.48,46.46-38.91,128.73-114.76,257.92C1895.22,2250.51,1883.65,2257.21,1870.34,2257.21z M1726.57,1936.49
						c-0.04,2.21,0.03,5.39,0.43,10.16l0.01-0.01c0.49,10.19,2.07,19.98,4.81,30.14l0.05,0.17
						c9.97,45.86,37.95,127.91,114.58,258.45c4.93,8.4,14.08,13.61,23.92,13.62l-0.01,4.28v-4.29c8.87,0,19.01-5.27,23.98-13.74
						c75.35-128.37,103.48-209.96,113.8-255.79l0.08-0.27c3.84-13.1,4.93-26.73,4.93-40.47l-0.87-0.6v-0.05
						c0-4.28,0.72-6.6,0.65-7.2l0.41-0.25c-4.2-75.58-66.95-134.78-143.14-134.78c-76.04,0-138.9,60.03-143.23,136.27l-0.12,4.37
						h-0.29V1936.49z"/>
				</g>
			</g>
			<ellipse class="st7" cx="1870.85" cy="1937.29" rx="85.39" ry="85.39"/>
			<g>
				<g>
					<path class="st1" d="M1870.88,2027.45c-49.71,0-90.16-40.45-90.16-90.16c0-49.71,40.45-90.16,90.16-90.16
						s90.16,40.45,90.16,90.16C1961.04,1987,1920.6,2027.45,1870.88,2027.45z M1870.88,1856.66c-44.45,0-80.61,36.17-80.61,80.61
						s36.17,80.61,80.61,80.61c44.46,0,80.61-36.17,80.61-80.61C1951.51,1892.83,1915.34,1856.66,1870.88,1856.66z"/>
				</g>
			</g>
		</g>
		<g>
			<path class="st7" d="M1789.88,1848.38c-0.4,0-0.8-0.17-1.08-0.49c-0.52-0.6-0.44-1.51,0.16-2.01
				c23.98-20.6,54.63-31.94,86.29-31.94c0.79,0,1.43,0.64,1.43,1.43s-0.64,1.43-1.43,1.43c-30.98,0-60.96,11.1-84.43,31.26
				C1790.54,1848.26,1790.21,1848.38,1789.88,1848.38z"/>
		</g>
		<g>
			<path class="st7" d="M1744.16,1947.87c-0.79,0-1.43-0.64-1.43-1.43c0-24.73,6.85-48.85,19.82-69.76
				c0.41-0.67,1.29-0.88,1.97-0.47c0.67,0.41,0.88,1.29,0.47,1.97c-12.69,20.45-19.4,44.06-19.4,68.24
				C1745.59,1947.22,1744.95,1947.87,1744.16,1947.87z"/>
		</g>
	</g>
	<g>
		<g>
			
				<linearGradient id="SVGID_5_" gradientUnits="userSpaceOnUse" x1="2346.749" y1="3255.9243" x2="3459.061" y2="4443.9062" gradientTransform="matrix(1 0 0 -1 0 3710)">
				<stop  offset="0" style="stop-color:#09005D"/>
				<stop  offset="1" style="stop-color:#1A0F91"/>
			</linearGradient>
			<path class="st8" d="M1418.67,1004.82c0,219.05,184.29,396.62,411.62,396.62s421.8-185.33,421.8-404.38
				s-194.46-388.86-421.8-388.86S1418.67,785.77,1418.67,1004.82z"/>
			<g>
				<path class="st1" d="M2219.76,908.38c0.24,0,0.49-0.03,0.73-0.09c1.52-0.39,2.43-1.89,2.01-3.36
					c-4.43-16.02-10.09-31.93-16.82-47.25c-0.61-1.39-2.29-2.03-3.72-1.45c-1.44,0.6-2.12,2.2-1.51,3.6
					c6.63,15.09,12.2,30.74,16.56,46.53C2217.36,907.56,2218.51,908.38,2219.76,908.38z"/>
				<path class="st1" d="M2156.86,784.44c0.6,0,1.2-0.19,1.71-0.55c1.25-0.91,1.51-2.63,0.56-3.84
					c-76.27-97.45-199.1-155.62-328.6-155.62c-55.31,0-108.8,10.81-158.99,32.1c-1.44,0.61-2.09,2.23-1.45,3.61
					c0.63,1.39,2.31,2.01,3.75,1.41c49.46-21,102.18-31.65,156.7-31.65c127.73,0,248.87,57.36,324.07,153.43
					C2155.16,784.06,2155.99,784.44,2156.86,784.44z"/>
			</g>
			
				<linearGradient id="SVGID_6_" gradientUnits="userSpaceOnUse" x1="2589.1484" y1="2726.5789" x2="2145.6238" y2="2191.0017" gradientTransform="matrix(-1 0 0 -1 4406.8765 3710)">
				<stop  offset="0" style="stop-color:#FE7062"/>
				<stop  offset="1" style="stop-color:#FF928E"/>
			</linearGradient>
			<path class="st9" d="M1474.66,1004.82c0,189.61,159.52,343.32,356.31,343.32s365.12-160.43,365.12-350.04
				s-168.33-336.6-365.12-336.6S1474.66,815.2,1474.66,1004.82z"/>
			
				<linearGradient id="SVGID_7_" gradientUnits="userSpaceOnUse" x1="2793.5305" y1="2929.9612" x2="2075.6868" y2="2202.4175" gradientTransform="matrix(-1 0 0 -1 4406.8765 3710)">
				<stop  offset="0" style="stop-color:#FE7062"/>
				<stop  offset="1" style="stop-color:#FF928E"/>
			</linearGradient>
			<path class="st10" d="M1474.66,1004.82c0-189.61,159.52-343.32,356.31-343.32c106.56,0,204.76,43.11,272.41,112.74
				l-274.47,220.05l-56.42,349.21C1603.53,1316.62,1474.66,1175.23,1474.66,1004.82z"/>
			<path class="st11" d="M1523.16,980.95c0,171.12,146.95,309.83,328.23,309.83s336.35-144.78,336.35-315.9
				s-155.07-303.78-336.35-303.78C1670.12,671.11,1523.16,809.83,1523.16,980.95z"/>
			<path class="st12" d="M2105.03,987c0.88,14.57,13.85,25.7,28.98,24.85c15.12-0.85,26.68-13.34,25.8-27.93
				c-0.88-14.57-13.85-25.7-28.98-24.85C2115.69,959.93,2104.15,972.43,2105.03,987z"/>
			<path class="st12" d="M1512.39,1020.24c0.88,14.57,13.85,25.7,28.98,24.85c15.13-0.85,26.68-13.34,25.8-27.93
				c-0.88-14.57-13.85-25.7-28.98-24.85C1523.05,993.16,1511.51,1005.67,1512.39,1020.24z"/>
			<path class="st12" d="M1884.49,1257.44c-14.9,2.63-24.78,16.4-22.05,30.76c2.72,14.36,17.01,23.88,31.92,21.25
				c14.9-2.63,24.78-16.38,22.05-30.76C1913.68,1264.34,1899.39,1254.82,1884.49,1257.44z"/>
			<path class="st12" d="M1777.83,694.74c-14.9,2.63-24.78,16.38-22.06,30.76c2.72,14.36,17.01,23.88,31.92,21.25
				c14.9-2.63,24.78-16.38,22.06-30.76C1807.02,701.63,1792.73,692.12,1777.83,694.74z"/>
			<path class="st12" d="M1689.48,1272.55c-2.79,6.77-2.09,13.12,1.56,14.17c3.65,1.05,8.87-3.59,11.65-10.37
				c2.79-6.77,2.09-13.12-1.56-14.17C1697.48,1261.12,1692.26,1265.78,1689.48,1272.55z"/>
			<path class="st12" d="M1927.9,738.83c-2.79,6.77-2.09,13.12,1.56,14.17c3.65,1.05,8.87-3.59,11.65-10.37
				c2.79-6.77,2.09-13.12-1.56-14.17C1935.89,727.4,1930.68,732.04,1927.9,738.83z"/>
			<path class="st12" d="M1564.99,1171.08c-6.04,4.4-8.85,10.17-6.31,12.89c2.55,2.72,9.51,1.36,15.54-3.03
				c6.04-4.4,8.85-10.17,6.31-12.89C1577.98,1165.34,1571.02,1166.68,1564.99,1171.08z"/>
			<path class="st12" d="M2056.34,834.23c-6.04,4.4-8.85,10.17-6.31,12.89c2.55,2.72,9.51,1.36,15.54-3.03
				c6.04-4.4,8.85-10.17,6.31-12.89C2069.34,828.47,2062.38,829.83,2056.34,834.23z"/>
			<path class="st12" d="M1549.35,868.89c-6.83-3.13-13.45-2.89-14.78,0.55c-1.33,3.44,3.12,8.76,9.96,11.89
				c6.83,3.13,13.45,2.89,14.78-0.55C1560.63,877.34,1556.18,872.02,1549.35,868.89z"/>
			<path class="st12" d="M2086.05,1133.85c-6.83-3.13-13.45-2.89-14.78,0.55c-1.33,3.44,3.12,8.76,9.96,11.89
				c6.83,3.13,13.45,2.89,14.78-0.55C2097.34,1142.3,2092.87,1136.98,2086.05,1133.85z"/>
			<path class="st12" d="M1662.75,756c-4.15-6.09-9.93-9.2-12.93-6.93c-2.99,2.27-2.05,9.05,2.09,15.14
				c4.15,6.09,9.93,9.2,12.93,6.93C1667.84,768.88,1666.9,762.09,1662.75,756z"/>
			<path class="st12" d="M1978.65,1250.95c-4.15-6.09-9.93-9.2-12.93-6.93c-2.99,2.27-2.05,9.05,2.09,15.14
				c4.15,6.09,9.93,9.2,12.93,6.93C1983.74,1263.83,1982.79,1257.06,1978.65,1250.95z"/>
			<g>
				
					<linearGradient id="SVGID_8_" gradientUnits="userSpaceOnUse" x1="2003.9496" y1="3157.48" x2="1835.0267" y2="2761.645" gradientTransform="matrix(1 0 0 -1 0 3710)">
					<stop  offset="0" style="stop-color:#4F52FF"/>
					<stop  offset="1" style="stop-color:#4042E2"/>
				</linearGradient>
				<path class="st13" d="M1819.73,1003.76l73.99-233.03c1.43-4.52-2.32-9.03-6.85-8.24l-26.94,4.68c-5.24,0.91-9.07-5.11-6.17-9.71
					l111.52-176.69c3.41-5.4,11.57-2.51,11.17,3.96l-13.05,209.1c-0.31,5-5.87,7.59-9.73,4.52l-25.97-20.58
					c-3.21-2.55-7.84-1.24-9.32,2.61l-87.2,227.78c-1.21,3.17-4.67,4.73-7.76,3.52l0,0
					C1820.34,1010.48,1818.71,1006.97,1819.73,1003.76z"/>
				
					<linearGradient id="SVGID_9_" gradientUnits="userSpaceOnUse" x1="1935.4426" y1="3024.7708" x2="1968.1771" y2="3024.7708" gradientTransform="matrix(1 0 0 -1 0 3710)">
					<stop  offset="0" style="stop-color:#DAE3FE"/>
					<stop  offset="1" style="stop-color:#E9EFFD"/>
				</linearGradient>
				<path class="st14" d="M1968.13,605.41c-0.29-2.03-1.64-3.71-3.61-4.37c-2.36-0.8-4.79,0.13-6.07,2.31l-22.61,38.41
					c-0.79,1.33-0.37,3.08,0.92,3.91s2.97,0.41,3.76-0.92l22.61-38.41c-3.61,47.43-11,158.36-10.89,160.63
					c0.04,1.53,1.35,2.8,2.85,2.75c1.49-0.05,2.65-1.33,2.61-2.87c0.04-3.29,5.65-88.31,10.44-160.22
					C1968.2,606.2,1968.18,605.8,1968.13,605.41z"/>
			</g>
			<g>
				
					<linearGradient id="SVGID_10_" gradientUnits="userSpaceOnUse" x1="1985.0801" y1="2649.1968" x2="2317.8838" y2="3239.1658" gradientTransform="matrix(1 0 0 -1 0 3710)">
					<stop  offset="0" style="stop-color:#4F52FF"/>
					<stop  offset="1" style="stop-color:#4042E2"/>
				</linearGradient>
				<path class="st15" d="M1828.72,993.88l129.63,129.22c2.92,2.81,7.91,1.37,9.09-2.63l7.07-23.78c1.37-4.63,7.55-5.59,9.95-1.55
					l92.36,155.38c2.83,4.76-2.65,10.4-7.49,7.72l-156.47-86.4c-3.75-2.07-3.53-7.56,0.37-9.61l26.22-13.84
					c3.24-1.71,4.08-5.97,1.68-8.59l-120.33-138.17c-1.97-2.15-1.81-5.53,0.36-7.64l0,0
					C1823.3,991.95,1826.64,991.88,1828.72,993.88z"/>
				
					<linearGradient id="SVGID_11_" gradientUnits="userSpaceOnUse" x1="1934.5786" y1="2501.7935" x2="2062.8223" y2="2501.7935" gradientTransform="matrix(1 0 0 -1 0 3710)">
					<stop  offset="0" style="stop-color:#DAE3FE"/>
					<stop  offset="1" style="stop-color:#E9EFFD"/>
				</linearGradient>
				<path class="st16" d="M1935.33,1173.03c-0.21,0.21-0.4,0.47-0.53,0.76c-0.56,1.24-0.03,2.65,1.17,3.2
					c2.52,1.23,66.02,36.59,119.72,66.55c1.91,1.05,4.17,0.72,5.77-0.96c1.55-1.64,1.8-3.97,0.63-5.81l-20.73-32.44
					c-0.72-1.12-2.24-1.43-3.39-0.65c-1.15,0.75-1.51,2.28-0.79,3.41l20.73,32.45c-35.23-20.13-118.06-66.32-119.85-67.07
					C1937.11,1172.06,1936.04,1172.31,1935.33,1173.03z"/>
			</g>
			
				<linearGradient id="SVGID_12_" gradientUnits="userSpaceOnUse" x1="1853.7877" y1="2753.1636" x2="1773.1082" y2="2606.9319" gradientTransform="matrix(1 0 0 -1 0 3710)">
				<stop  offset="0" style="stop-color:#4F52FF"/>
				<stop  offset="1" style="stop-color:#4042E2"/>
			</linearGradient>
			<ellipse class="st17" cx="1832.8" cy="994.87" rx="29.3" ry="28.24"/>
		</g>
	</g>
</g>
</svg>
