<svg id="Vrstva_1" data-name="Vrstva 1" xmlns="http://www.w3.org/2000/svg" viewBox="0 0 247.26 142.36"><defs><style>.cls-1{fill:#252164;}.cls-2{fill:#f37064;}</style></defs><rect class="cls-1" width="20.31" height="5.44"/animuj-vozickar><path class="cls-2" d="M16.05,54.8V11H27.77a18.15,18.15,0,0,1,9.58,2.52,16.77,16.77,0,0,1,6.42,7.19,24.37,24.37,0,0,1,2.3,10.71v2.8A24.59,24.59,0,0,1,43.8,45.09a16.5,16.5,0,0,1-6.47,7.16,19.24,19.24,0,0,1-9.79,2.55Zm5.48-39.07V50.08h5.75q6.33,0,9.85-4.15t3.52-11.84V31.54q0-7.47-3.32-11.61t-9.42-4.2Z" transform="translate(-1.3 -1.58)"/><path class="cls-2" d="M86.26,34.32a28.32,28.32,0,0,1-2.05,11.23,16.26,16.26,0,0,1-5.82,7.33,15.37,15.37,0,0,1-8.78,2.52,15.22,15.22,0,0,1-8.69-2.54A16.56,16.56,0,0,1,55,45.61a27.33,27.33,0,0,1-2.15-10.9V31.55A28.19,28.19,0,0,1,55,20.39,16.5,16.5,0,0,1,60.85,13a15.15,15.15,0,0,1,8.71-2.57A15.43,15.43,0,0,1,78.35,13a16.15,16.15,0,0,1,5.86,7.37,28.49,28.49,0,0,1,2.05,11.23Zm-5.44-2.83q0-7.78-3-12a10.22,10.22,0,0,0-16.46,0q-3,4.17-3.06,11.57v3.22q0,7.55,3,11.87a10.21,10.21,0,0,0,16.49.24q2.91-4.08,3-11.69Z" transform="translate(-1.3 -1.58)"/><path class="cls-2" d="M94.47,54.8V11H108q6.75,0,10.16,2.94t3.41,8.73A9.21,9.21,0,0,1,120,28.11a10.8,10.8,0,0,1-4.5,3.65,9.64,9.64,0,0,1,5.32,3.78,11.24,11.24,0,0,1,2,6.63q0,5.89-3.62,9.26c-2.41,2.25-5.83,3.37-10.23,3.37Zm5.47-25.11h8.27a8.39,8.39,0,0,0,5.74-1.9,6.53,6.53,0,0,0,2.16-5.16q0-3.61-2-5.26T108,15.73h-8.1Zm0,4.63V50.08h9A8.42,8.42,0,0,0,115,48a7.55,7.55,0,0,0,2.21-5.76q0-7.9-8.16-7.91Z" transform="translate(-1.3 -1.58)"/><path class="cls-2" d="M146,37.09h-9.75V54.8h-5.5V11h13.74q7,0,10.78,3.37t3.78,9.8A12.28,12.28,0,0,1,157,31.31a12.55,12.55,0,0,1-5.83,4.54l9.75,18.59v.36H155Zm-9.75-4.73h8.41a9.14,9.14,0,0,0,6.48-2.23,7.7,7.7,0,0,0,2.41-6,8.15,8.15,0,0,0-2.3-6.24q-2.28-2.17-6.62-2.2h-8.38Z" transform="translate(-1.3 -1.58)"/><path class="cls-2" d="M198.68,34.32a28.32,28.32,0,0,1-2.05,11.23,16.24,16.24,0,0,1-5.81,7.33A15.42,15.42,0,0,1,182,55.4a15.23,15.23,0,0,1-8.7-2.54,16.54,16.54,0,0,1-5.88-7.25,27.15,27.15,0,0,1-2.16-10.9V31.55a28,28,0,0,1,2.09-11.16A16.48,16.48,0,0,1,173.27,13,15.15,15.15,0,0,1,182,10.41,15.38,15.38,0,0,1,190.77,13a16.15,16.15,0,0,1,5.86,7.37,28.49,28.49,0,0,1,2.05,11.23Zm-5.44-2.83q0-7.78-3-12a9.63,9.63,0,0,0-8.3-4.16,9.52,9.52,0,0,0-8.17,4.16q-3,4.17-3.06,11.57v3.22q0,7.55,3,11.87a10.21,10.21,0,0,0,16.49.24q2.91-4.08,3-11.69Z" transform="translate(-1.3 -1.58)"/><rect class="cls-1" x="-20.71" y="39.01" width="79.09" height="5.64" transform="translate(59.35 21.37) rotate(89.93)"/><path class="cls-2" d="M99.9,116.79,112,79.88h6.13l-15.76,44.75h-5L81.71,79.88h6.1Z" transform="translate(-1.3 -1.58)"/><path class="cls-2" d="M156.18,103.7a29,29,0,0,1-2.1,11.48,16.58,16.58,0,0,1-6,7.48,15.8,15.8,0,0,1-9,2.58,15.59,15.59,0,0,1-8.9-2.6,16.94,16.94,0,0,1-6-7.4A27.79,27.79,0,0,1,122,104.1v-3.23a28.62,28.62,0,0,1,2.13-11.4,16.89,16.89,0,0,1,6-7.58,15.6,15.6,0,0,1,8.92-2.63,15.87,15.87,0,0,1,9,2.6,16.51,16.51,0,0,1,6,7.53,29.11,29.11,0,0,1,2.1,11.48Zm-5.57-2.89q0-8-3-12.22a10.47,10.47,0,0,0-16.86,0q-3,4.26-3.14,11.82v3.29q0,7.71,3.08,12.12a10.47,10.47,0,0,0,16.89.25q3-4.17,3.07-11.94Z" transform="translate(-1.3 -1.58)"/><path class="cls-2" d="M168.12,119.8h24.32v4.83H161.5V120.2l23.29-35.5H161.88V79.88h29.63v4.3Z" transform="translate(-1.3 -1.58)"/><path class="cls-2" d="M205.55,67.52h6.54l-7.82,9-4.35,0Zm.18,57.11h-5.61V79.88h5.61Z" transform="translate(-1.3 -1.58)"/><path class="cls-2" d="M226.77,103.82l-5.19,5.68v15.13H216V79.88h5.61V102l18.89-22.13h6.77L230.51,99.64l18,25h-6.71Z" transform="translate(-1.3 -1.58)"/><polygon class="cls-1" points="96.18 123.05 79.87 78.21 86.7 78.01 101.19 123.16 96.18 123.05"/><path class="cls-1" d="M79.32,104.38a36,36,0,0,0-2.53-11.61A37.43,37.43,0,0,0,25.21,73.08,37.46,37.46,0,0,0,4.57,106.52a37.42,37.42,0,1,0,74.83,0C79.4,105.8,79.37,105.1,79.32,104.38ZM42,138.84A32.29,32.29,0,0,1,17.49,85.5a31.57,31.57,0,0,1,10-7.84A31.92,31.92,0,0,1,42,74.23,32.31,32.31,0,0,1,72.05,94.66a31.33,31.33,0,0,1,2.18,10c0,.63.07,1.23.07,1.85A32.3,32.3,0,0,1,42,138.84Z" transform="translate(-1.3 -1.58)"/><path class="cls-1" d="M99.89,121.39a11.28,11.28,0,1,0,11.27,11.28A11.28,11.28,0,0,0,99.89,121.39Zm0,19.24a8,8,0,1,1,8-8A8,8,0,0,1,99.89,140.63Z" transform="translate(-1.3 -1.58)"/><rect class="cls-1" x="66.29" y="78.01" width="20.31" height="5.44"/></svg>