<?xml version="1.0" encoding="utf-8"?>
<!-- Generator: Adobe Illustrator 25.2.0, SVG Export Plug-In . SVG Version: 6.00 Build 0)  -->
<svg version="1.1" xmlns="http://www.w3.org/2000/svg" xmlns:xlink="http://www.w3.org/1999/xlink" x="0px" y="0px"
	 viewBox="0 0 2475 1650" style="enable-background:new 0 0 2475 1650;" xml:space="preserve">
<style type="text/css">
	.st0{fill:#FFFFFF;}
	.st1{fill:url(#SVGID_1_);}
</style>
<g id="Background">
	<rect class="st0" width="2475" height="1650"/>
</g>
<g id="Illustration">
	<linearGradient id="SVGID_1_" gradientUnits="userSpaceOnUse" x1="29.7305" y1="1807.3237" x2="2283.6243" y2="170.5672">
		<stop  offset="0" style="stop-color:#DAE3FE"/>
		<stop  offset="1" style="stop-color:#E9EFFD"/>
	</linearGradient>
	<path class="st1" d="M2311.21,745.02c-59.05-82.36-184.19-126.48-187.44-249.91c-2.11-80.2,34.33-123.67-23.98-192.13
		c-140.95-165.49-358.16-184.88-543.63-115.75c-185.4,69.11-333.57,207.64-539.7,199.29c-112.26-4.55-216.55-57.77-327.67-67.76
		c-34.23-3.08-66.22-0.44-96.13,7.22c-112.13,28.69-211.13,136.44-248.41,256.15c-30.22,97.04,8.39,192.83-39.06,287.86
		c-50.58,101.28-150.18,171.63-175.27,288.56c-30.12,140.34,84.95,262.39,208.56,266.21c78.68,2.43,224.52-10.13,291.36-58.63
		c81.39-59.05,161.38-62.94,256.26-60.67c180.56,4.31,361.12,44.9,539.36,73.8c152.73,24.76,303.26,61.44,458.04,66.09
		c113.67,3.42,210.14,4.96,271.65-118.39C2228.67,1179.53,2435.05,917.76,2311.21,745.02z"/>
</g>
</svg>
