<svg xmlns="http://www.w3.org/2000/svg" xmlns:xlink="http://www.w3.org/1999/xlink" viewBox="0 0 3710 3710"><defs><style>.cls-1{fill:#fff;}.cls-2{fill:#bdd0fb;}.cls-3{fill:#91b3fa;}.cls-4{fill:#7d97f4;}.cls-5{fill:url(#linear-gradient);}.cls-6{fill:url(#linear-gradient-2);}.cls-7{fill:url(#linear-gradient-3);}.cls-8{fill:url(#linear-gradient-4);}.cls-9{fill:url(#linear-gradient-5);}.cls-10{fill:url(#linear-gradient-6);}.cls-11{fill:url(#linear-gradient-7);}.cls-12{fill:url(#linear-gradient-8);}.cls-13{fill:url(#linear-gradient-9);}.cls-14{fill:url(#linear-gradient-10);}.cls-15{fill:url(#linear-gradient-11);}.cls-16{fill:url(#linear-gradient-12);}.cls-17{fill:url(#linear-gradient-13);}.cls-18,.cls-25{opacity:0.56;}.cls-18{fill:url(#linear-gradient-14);}.cls-19{fill:url(#linear-gradient-15);}.cls-20{fill:url(#linear-gradient-16);}.cls-21{fill:url(#linear-gradient-17);}.cls-22{fill:url(#linear-gradient-18);}.cls-23{fill:url(#linear-gradient-19);}.cls-24{fill:url(#linear-gradient-20);}.cls-25{fill:url(#linear-gradient-21);}.cls-26{fill:url(#linear-gradient-22);}.cls-27{fill:url(#linear-gradient-23);}.cls-28{fill:url(#linear-gradient-24);}.cls-29{fill:url(#linear-gradient-25);}.cls-30{fill:url(#linear-gradient-26);}.cls-31{fill:url(#linear-gradient-27);}.cls-32{fill:url(#linear-gradient-28);}.cls-33{fill:url(#linear-gradient-29);}.cls-34{fill:url(#linear-gradient-30);}.cls-35{fill:url(#linear-gradient-31);}.cls-36{fill:url(#linear-gradient-32);}.cls-37{fill:url(#linear-gradient-33);}.cls-38{fill:url(#linear-gradient-34);}.cls-39{fill:url(#linear-gradient-35);}</style><linearGradient id="linear-gradient" x1="11088.08" y1="2964.61" x2="11368.49" y2="2964.61" gradientTransform="translate(-8675.37 1069.22) rotate(-5.84)" gradientUnits="userSpaceOnUse"><stop offset="0" stop-color="#09005d"/><stop offset="1" stop-color="#1a0f91"/></linearGradient><linearGradient id="linear-gradient-2" x1="11304.13" y1="2425.36" x2="11227.51" y2="2954.75" gradientTransform="translate(-8675.37 1069.22) rotate(-5.84)" gradientUnits="userSpaceOnUse"><stop offset="0" stop-color="#4f52ff"/><stop offset="1" stop-color="#4042e2"/></linearGradient><linearGradient id="linear-gradient-3" x1="11102.08" y1="2880.1" x2="11177.95" y2="2880.1" gradientTransform="translate(-8675.37 1069.22) rotate(-5.84)" gradientUnits="userSpaceOnUse"><stop offset="0" stop-color="#febbba"/><stop offset="1" stop-color="#ff928e"/></linearGradient><linearGradient id="linear-gradient-4" x1="3015.25" y1="1867.72" x2="2904.86" y2="1998.18" gradientTransform="matrix(1, 0, 0, 1, 0, 0)" xlink:href="#linear-gradient-2"/><linearGradient id="linear-gradient-5" x1="11084.18" y1="3021.82" x2="11369.33" y2="3021.82" xlink:href="#linear-gradient"/><linearGradient id="linear-gradient-6" x1="2881.98" y1="2746.16" x2="3089.38" y2="2351.43" gradientTransform="matrix(1, 0, 0, 1, 0, 0)" xlink:href="#linear-gradient-2"/><linearGradient id="linear-gradient-7" x1="11098.42" y1="2935.89" x2="11175.57" y2="2935.89" xlink:href="#linear-gradient-3"/><linearGradient id="linear-gradient-8" x1="-1889.56" y1="2242.53" x2="-1101.12" y2="3014.71" gradientTransform="matrix(-0.99, 0.1, 0.1, 0.99, 706.75, 109.36)" xlink:href="#linear-gradient-2"/><linearGradient id="linear-gradient-9" x1="-2499.25" y1="903.99" x2="-241.26" y2="3114.07" gradientTransform="matrix(-0.99, 0.1, 0.1, 0.99, 706.75, 109.36)" xlink:href="#linear-gradient"/><linearGradient id="linear-gradient-10" x1="-583.25" y1="1423.99" x2="-941.57" y2="2295.35" gradientTransform="matrix(-0.99, 0.1, 0.1, 0.99, 706.75, 109.36)" xlink:href="#linear-gradient"/><linearGradient id="linear-gradient-11" x1="-1761.12" y1="3056.43" x2="-1487.41" y2="3056.43" gradientTransform="matrix(-0.99, 0.1, 0.1, 0.99, 706.75, 109.36)" xlink:href="#linear-gradient"/><linearGradient id="linear-gradient-12" x1="3288.84" y1="2269.59" x2="2767" y2="2436.84" gradientTransform="matrix(1, 0, 0, 1, 0, 0)" xlink:href="#linear-gradient"/><linearGradient id="linear-gradient-13" x1="-1602.93" y1="2892.83" x2="-1860.55" y2="3364.26" gradientTransform="matrix(-0.78, -0.63, -0.63, 0.78, 3395.52, -476.95)" xlink:href="#linear-gradient"/><linearGradient id="linear-gradient-14" x1="-1635.14" y1="2951.76" x2="-1832.78" y2="3313.42" gradientTransform="matrix(-0.78, -0.63, -0.63, 0.78, 3395.52, -476.95)" xlink:href="#linear-gradient-2"/><linearGradient id="linear-gradient-15" x1="10238.15" y1="1521.88" x2="10459.35" y2="1521.88" gradientTransform="translate(-8115.75 4387.05) rotate(-24.5)" xlink:href="#linear-gradient-3"/><linearGradient id="linear-gradient-16" x1="16154.89" y1="12151.84" x2="15885.3" y2="12508.49" gradientTransform="translate(-17662.76 -3337.56) rotate(-23.94)" xlink:href="#linear-gradient-3"/><linearGradient id="linear-gradient-17" x1="15815.94" y1="12440.23" x2="16005.35" y2="12245.89" gradientTransform="translate(-17662.76 -3337.56) rotate(-23.94)" xlink:href="#linear-gradient-3"/><linearGradient id="linear-gradient-18" x1="8764.69" y1="1285.79" x2="8961.41" y2="1285.79" gradientTransform="translate(-6163.78 296.18) rotate(4.17)" xlink:href="#linear-gradient-3"/><linearGradient id="linear-gradient-19" x1="2557.03" y1="1406.89" x2="2336.26" y2="1694.57" gradientUnits="userSpaceOnUse"><stop offset="0" stop-color="#ff928e"/><stop offset="1" stop-color="#fe7062"/></linearGradient><linearGradient id="linear-gradient-20" x1="-1668.97" y1="2707.61" x2="-583.29" y2="2707.61" gradientTransform="matrix(-0.99, 0.1, 0.1, 0.99, 706.75, 109.36)" xlink:href="#linear-gradient"/><linearGradient id="linear-gradient-21" x1="1752.22" y1="2381.28" x2="4429.67" y2="2944.29" gradientTransform="matrix(-0.95, -0.32, -0.32, 0.95, 5338.92, 1112.9)" xlink:href="#linear-gradient-2"/><linearGradient id="linear-gradient-22" x1="1298.08" y1="362.56" x2="-29.88" y2="1400.72" gradientTransform="matrix(-1, 0, 0, 1, 1426.33, 0)" xlink:href="#linear-gradient-2"/><linearGradient id="linear-gradient-23" x1="-2468.06" y1="2637.05" x2="-2538.96" y2="2857.21" gradientTransform="translate(3806.98)" xlink:href="#linear-gradient"/><linearGradient id="linear-gradient-24" x1="-2749.69" y1="3011.81" x2="-2661.97" y2="3011.81" gradientTransform="translate(3806.98)" xlink:href="#linear-gradient-3"/><linearGradient id="linear-gradient-25" x1="-3032.04" y1="2455.43" x2="-3102.94" y2="2675.59" gradientTransform="translate(3806.98)" xlink:href="#linear-gradient"/><linearGradient id="linear-gradient-26" x1="-3242.38" y1="2966.06" x2="-3137.54" y2="2966.06" gradientTransform="translate(3806.98)" xlink:href="#linear-gradient-3"/><linearGradient id="linear-gradient-27" x1="1122.08" y1="2282.93" x2="1409.76" y2="1640.67" gradientTransform="matrix(1, 0, 0, 1, 0, 0)" xlink:href="#linear-gradient-2"/><linearGradient id="linear-gradient-28" x1="622.28" y1="537.44" x2="230.92" y2="2112.91" gradientTransform="matrix(-1, 0, 0, 1, 1426.33, 0)" xlink:href="#linear-gradient-2"/><linearGradient id="linear-gradient-29" x1="-2725.9" y1="1106.92" x2="-2680.47" y2="868.44" gradientTransform="translate(3806.98)" xlink:href="#linear-gradient-3"/><linearGradient id="linear-gradient-30" x1="-2602.98" y1="669.39" x2="-2862.16" y2="867.69" gradientTransform="translate(3806.98)" xlink:href="#linear-gradient-3"/><linearGradient id="linear-gradient-31" x1="-2785.43" y1="512.37" x2="-2544.05" y2="823.15" gradientTransform="translate(3806.98)" xlink:href="#linear-gradient"/><linearGradient id="linear-gradient-32" x1="-2635.13" y1="627.37" x2="-2894.31" y2="825.68" gradientTransform="translate(3806.98)" xlink:href="#linear-gradient-3"/><linearGradient id="linear-gradient-33" x1="1197.04" y1="1293.82" x2="1554.97" y2="1009.49" gradientTransform="matrix(1, 0, 0, 1, 0, 0)" xlink:href="#linear-gradient-2"/><linearGradient id="linear-gradient-34" x1="912.02" y1="625.52" x2="718" y2="1238.82" gradientTransform="matrix(-0.97, 0.26, 0.26, 0.97, 1939.94, 268.89)" xlink:href="#linear-gradient-3"/><linearGradient id="linear-gradient-35" x1="-4425.77" y1="-3334.14" x2="-4567.24" y2="-3121.94" gradientTransform="matrix(-0.05, -1, 1, -0.05, 4442.2, -3031.13)" xlink:href="#linear-gradient-3"/></defs><g id="Background"><rect class="cls-1" width="3710" height="3710"/></g><g id="Illustration"><path class="cls-2" d="M2705.73,1400.66c-18.35-53.91-29.46-109.36-26.58-168,7.26-147.62,108.51-272.22,186.14-390.77,71.34-109,134.73-276.44-61-284.31-155.92-6.28-356,125.89-395.91,283.91-47.28,187,16.49,437.67-113.84,597.09-182.33,223-286.34,154.44-335.17,561.81-20.86,174.07,64,281.64,168.15,347.77A465.48,465.48,0,0,0,2658.71,2326c136.92-104,230.33-266,226.2-440.31C2880.73,1709.62,2760.71,1562.09,2705.73,1400.66Z"/><path class="cls-3" d="M2420,2694.49l.46,0a5,5,0,0,0,4.35-5.61c-113.26-892.67-1.29-1402.51,112.58-1673,122.94-292.07,273.78-374.63,275.29-375.43a5,5,0,0,0-4.7-8.87c-1.54.82-155.52,85.08-279.84,380.41-72.81,173-121.56,383.67-144.9,626.25-29.14,303-18.51,656.89,31.61,1051.92A5,5,0,0,0,2420,2694.49Z"/><path class="cls-2" d="M2911.11,989.65a65.12,65.12,0,0,0-24.21-4.58c-49-.23-74.93,48.34-93.91,86.48-16.24,32.66-35.53,72.35-32.78,110.18,3,40.89,41.5,78.57,77.16,41.69,40.53-41.93,101.54-106.44,109.18-167.51C2950.35,1025.55,2936.14,999.77,2911.11,989.65Z"/><path class="cls-2" d="M3171.73,2148.32c35.36-127.83,6-283-1.16-423.5-3.76-74.29-.88-147.23,19.6-219.17,20.37-71.52,64.08-146.28,41.2-222.72-46.12-154-205.42-105.52-305.31-5.72C2810.15,1393,2757.61,1598.65,2700.12,1755c-34.66,94.23-81.28,189.56-105.27,286.94-39.75,161.32-16.36,279.43,52.77,365.58a238.71,238.71,0,0,0,276.91,71.45C3013.09,2442.64,3114.67,2354.54,3171.73,2148.32Z"/><path class="cls-3" d="M2753.92,2710.94h0a5,5,0,0,0,4.79-5.25c-.09-2-9.16-203.82,22.75-477.15,29.42-252.11,100.71-618.35,273.24-931.47a5,5,0,0,0-8.79-4.84c-173.34,314.6-244.92,682.29-274.44,935.34-32,274.1-22.88,476.58-22.78,478.59A5,5,0,0,0,2753.92,2710.94Z"/><path class="cls-3" d="M1959,1742.83h789l-70,775.45a39.7,39.7,0,0,1-39.54,36.13H1959Z"/><path class="cls-4" d="M2229.54,2554.41h315.62l36-395.75a35,35,0,0,0-34.9-38.22H2243.92a35,35,0,0,0-35,36.87Z"/><path class="cls-4" d="M2009.74,1782.29h746.43a29.26,29.26,0,0,0,27.31-39.77l-5.67-14.75A29.27,29.27,0,0,0,2750.5,1709H2009.74Z"/><rect class="cls-4" x="2404.26" y="1855.55" width="84.54" height="129.63"/><rect class="cls-4" x="2246.45" y="1855.55" width="84.54" height="129.63"/><rect class="cls-4" x="2562.06" y="1855.55" width="84.54" height="129.63"/><polygon class="cls-4" points="2223.91 886.17 2129.66 2554.41 561.31 2554.41 493.68 886.17 2223.91 886.17"/><path class="cls-3" d="M487.72,920H2232.17a19.33,19.33,0,0,0,18.48-13.65l10.65-34.6a19.34,19.34,0,0,0-18.48-25H482.4A19.33,19.33,0,0,0,463.29,869l5.32,34.6A19.33,19.33,0,0,0,487.72,920Z"/><polygon class="cls-2" points="508.76 1258.14 499.16 1021.43 2216.27 1021.43 2202.89 1258.14 508.76 1258.14"/><rect class="cls-4" x="1987.2" y="1021.43" width="39.45" height="236.71"/><rect class="cls-4" x="1716.67" y="1021.43" width="39.45" height="236.71"/><rect class="cls-4" x="1446.15" y="1021.43" width="39.45" height="236.71"/><rect class="cls-4" x="1175.63" y="1021.43" width="39.45" height="236.71"/><rect class="cls-4" x="905.1" y="1021.43" width="39.45" height="236.71"/><rect class="cls-4" x="634.58" y="1021.43" width="39.45" height="236.71"/><rect class="cls-3" x="1603.66" y="1353.95" width="406.08" height="174.71" transform="translate(3613.4 2882.62) rotate(180)"/><rect class="cls-2" x="1618.7" y="1370.86" width="376" height="146.53"/><rect class="cls-3" x="1159.98" y="1353.95" width="406.08" height="174.71" transform="translate(2726.04 2882.62) rotate(180)"/><rect class="cls-2" x="1175.02" y="1370.86" width="376" height="146.53"/><rect class="cls-3" x="716.3" y="1353.95" width="406.08" height="174.71" transform="translate(1838.67 2882.62) rotate(180)"/><rect class="cls-2" x="731.34" y="1370.86" width="376" height="146.53"/><rect class="cls-2" x="1158.72" y="1934.46" width="766.49" height="659.4"/><path class="cls-3" d="M1857.26,1911.91H1987.2a0,0,0,0,1,0,0v681.95a0,0,0,0,1,0,0H1846.3a0,0,0,0,1,0,0v-671A11,11,0,0,1,1857.26,1911.91Z" transform="translate(3833.5 4505.77) rotate(180)"/><rect class="cls-4" x="1293.98" y="2137.35" width="495.96" height="456.51"/><path class="cls-3" d="M2046.86,1641.65l-20.21,343.53h-789v608.68h-514A51.68,51.68,0,0,1,672,2544.27L636.12,1657a37.05,37.05,0,0,1,36.59-38.56l1336.71-16A37.06,37.06,0,0,1,2046.86,1641.65Z"/><polygon class="cls-4" points="2033.28 1872.46 1158.72 1872.46 1158.72 1742.83 2040.91 1742.83 2033.28 1872.46"/><rect class="cls-3" x="1868.84" y="1742.83" width="33.82" height="129.63" transform="translate(3771.51 3615.3) rotate(180)"/><rect class="cls-3" x="1716.67" y="1742.83" width="33.82" height="129.63" transform="translate(3467.17 3615.3) rotate(180)"/><rect class="cls-3" x="1564.5" y="1742.83" width="33.82" height="129.63" transform="translate(3162.82 3615.3) rotate(180)"/><rect class="cls-3" x="1412.33" y="1742.83" width="33.82" height="129.63" transform="translate(2858.48 3615.3) rotate(180)"/><rect class="cls-3" x="1260.16" y="1742.83" width="33.82" height="129.63" transform="translate(2554.14 3615.3) rotate(180)"/><path d="M1786.58,2315.66l-91.91-619.74c94.39-192.79,162.28,81,171.5,611.6Z"/><path d="M1772.55,2457.51l12.13-1.24L2599.36,2373c33.4-78.64-41.25-135.67-242.83-157.29l-564,49.92Z"/><path class="cls-5" d="M2768.85,2880.45c-68.39,7-99.25,4.22-113.32.25a26.07,26.07,0,0,0,27.32,17.52l241.93-24.74a11.84,11.84,0,0,0,9.83-16C2907.26,2862.49,2849.07,2872.25,2768.85,2880.45Z"/><path class="cls-6" d="M2934.61,2857.46a11.41,11.41,0,0,0-2.41-3.92c-20.83-21.64-61.63-54.81-111.91-48.95-73.67,8.58-98.57,19.22-156.78,16.49l-8.94,46.21a25.8,25.8,0,0,0,1,13.41c14.07,4,44.93,6.74,113.32-.25C2849.07,2872.25,2907.26,2862.49,2934.61,2857.46Z"/><path class="cls-7" d="M2675.17,2771.07l-10.83,58.16s38.49,13,69.47-3.77l1.34-49.56Z"/><path class="cls-8" d="M2254.25,2164.11s412.86-8.44,500.89,22.51-7.83,600.71-7.83,600.71-21.74,13.34-74.23,2.73c0,0,10.35-414.29-37.54-499l-450.73-27.18Z"/><path class="cls-9" d="M2772.68,2937.59c-69.54,7.11-100.92,4.3-115.23.26a26.52,26.52,0,0,0,27.79,17.81l246-25.16a12,12,0,0,0,10-16.29C2913.43,2919.33,2854.26,2929.25,2772.68,2937.59Z"/><path class="cls-10" d="M2941.24,2914.21a11.59,11.59,0,0,0-2.44-4c-21.19-22-62.67-55.74-113.81-49.78-74.91,8.73-100.23,19.54-159.42,16.77l-9.09,47a26.25,26.25,0,0,0,1,13.64c14.31,4,45.69,6.85,115.23-.26C2854.26,2929.25,2913.43,2919.33,2941.24,2914.21Z"/><path class="cls-11" d="M2677.42,2826.37l-11,59.14s39.14,13.2,70.64-3.83l1.37-50.41Z"/><path class="cls-12" d="M2249.4,2209.15s419.82-8.58,509.35,22.89-8,610.86-8,610.86-22.11,13.57-75.5,2.77c0,0-27.19-386.19-75.9-472.33l-420.61-62.72Z"/><path class="cls-13" d="M1766.67,2254.53l650.09-62.5-.2-1.92a59.09,59.09,0,0,0-62.88-52.94l-567.09,39.31a35,35,0,0,0-30.71,46.05Z"/><path class="cls-14" d="M1440,1606.75c221.8-89.41,299.32-6.31,306.44,259.4l51.49,503.52-57.08,5.83-60.92-595.71c-18.23-129.25-64.92-162.87-211-99.74C1420.88,1691.09,1389,1628.3,1440,1606.75Z"/><path class="cls-15" d="M2502.65,3021.84,2769,2994.6a3,3,0,0,0,2.67-3.28l-4.2-41.06a3,3,0,0,0-3.28-2.67l-266.33,27.23a3,3,0,0,0-2.68,3.29l4.2,41A3,3,0,0,0,2502.65,3021.84Z"/><path class="cls-16" d="M1801.42,2243.56l800.07,91.55a128.12,128.12,0,0,1,112.65,112.1l58.56,490.56-57.79,5.91-87-471.12-834.9-.41Z"/><circle class="cls-17" cx="2758.88" cy="3061.84" r="133.67" transform="translate(-1356.99 2847.61) rotate(-45)"/><circle class="cls-18" cx="2758.88" cy="3061.84" r="102.55" transform="translate(-1356.99 2847.61) rotate(-45)"/><path class="cls-1" d="M1992.44,1126.77a127.07,127.07,0,0,1,21,1c7.39.93,15.09,2.45,20.85,7.18,3.26,2.67,5.69,6.2,8.73,9.12,15.78,15.14,40.92,11.48,57.65,26.55,14.52,13.08,21.29,33.35,12.73,51.69a124.83,124.83,0,0,1-38.41,47.1c1-8.59,1.07-17.48-1.57-25.73-7.5-23.43-45.1-38.74-67.14-43.19-23.5-4.75-58.65,8.14-79.46,18.54-11,5.47-17.58,12.34-25.11,21.52-2.94,3.58-19.68,22.23-16.33,27.38a69,69,0,0,1,25.66-98.68c7.24-3.82,15.18-6.37,21.89-11.07,7.34-5.16,12.78-12.6,19.77-18.22C1963.88,1131,1978,1127.37,1992.44,1126.77Z"/><path class="cls-19" d="M1951.8,1362.44s-74.16,138.13-103.4,199.53l122.84,10s25.07-85.26,63.88-133.71Z"/><path class="cls-20" d="M2093.84,1228.77c5.18,20.11,5.75,43.46,7.68,68.38q5.43,70.17,10.53,140.34L1994,1443.62c-11-49-21-98.19-32.1-147.15-5.92-26.06-9.1-61-33-77.7-13.91-9.76-32.49-6.23-20.35-25.55,8.91-14.17,32.81-23.38,48.12-27.23,24.86-6.26,51.32-4,76,3.09C2071.38,1180.28,2086.83,1201.56,2093.84,1228.77Z"/><path class="cls-1" d="M1990.68,1286.33c-2.52,9-.26,19.36,1.69,33q5,35,10,69.89a14.59,14.59,0,0,0,1.09,3.83c3.33,7.51,16.66,32.54,41.43,17.34,22.48-13.8,43.2-26.05,60-25.67a14.6,14.6,0,0,1,14.26,13.54c1.37,18.76,3.67,61.08.06,98.15a14.58,14.58,0,0,1-14.71,13.1c-22.77-.21-70.79-2-109.09-12.49a14.63,14.63,0,0,1-10.43-10.74q-7.18-30.4-14.9-60.7c-2.11-8.22-1.64-19.46-7.3-25.92-6.31-7.2-17.84-10.18-26.92-7.73-4.23,1.14-8.13,3.27-12.35,4.4a27.8,27.8,0,0,1-29.06-10.5c-7.64-10.77-7.6-27.11-18.75-34.17-6.26-4-14-1.93-20.48-5.48-5.75-3.15-9.38-9-11.65-14.93-4.3-11.32-4.57-26.5,1.35-37.32,11.24-20.55,37.71-19.27,23.88-46.74-7-13.86.57-31.48,12.9-40.91,30.72-23.49,90.79-35.93,116.9.23,1,1.43,2.17,3,3.9,3.4s3.29-.54,4.85-1.23c9.31-4.15,21.18-.71,27.36,7.4s6.52,20,1.42,28.82c-5.83,10.09-17.11,15.43-27.18,21.32C1997.92,1272.66,1992.73,1279,1990.68,1286.33Z"/><path class="cls-21" d="M1963.59,1400.79s-1.68-63.66-26.62-71.77-54,7.93-35.49,47.47C1924.52,1425.68,1963.59,1400.79,1963.59,1400.79Z"/><path class="cls-22" d="M2484.49,2217.91l27.57-5.24,83.52-13a38.19,38.19,0,0,1,28.52,7l53.23,39.17a5,5,0,0,1-3.36,9.1l-177.49-13.24Z"/><path class="cls-23" d="M1904.88,2301.74S2039,2278.4,2118.05,2176c0,0-33.69-262.25-19.76-354.62,0,0,275,537.37,414.1,421.49l10.92-31.92c-63.81,8-302.58-449-335-531.07-35-88.32-188.23-136.77-252.39-131.6-40,3.22-65,3.68-78.27,3.57a17.16,17.16,0,0,0-16.27,11.13C1817.82,1625.44,1719.78,1927.77,1904.88,2301.74Z"/><circle class="cls-24" cx="2102.38" cy="2688.36" r="542.83"/><circle class="cls-25" cx="2094.11" cy="2698.52" r="465.02"/><path class="cls-26" d="M1335.33,997.74c55.09,102.27,149.88,517.39,145.34,593.17l-120.42,43.27Z"/><path class="cls-4" d="M1331.16,3143c-53.35,4.61-145.94,12.11-218.94,15.32-43.88,1.93-69.14-2.37-83.69-8.19,0,1.64.07,3.19.14,4.63A15.1,15.1,0,0,0,1043,3169c137.93,7.7,247.63,2.66,286.68.28a10.75,10.75,0,0,0,8.76-16.15A88.87,88.87,0,0,0,1331.16,3143Z"/><path class="cls-27" d="M1112.22,3158.31c73-3.21,165.59-10.71,218.94-15.32-52.45-64.35-218.94-107.73-218.94-107.73h-47c-32.34,46.62-37,91-36.67,114.86C1043.08,3155.94,1068.34,3160.24,1112.22,3158.31Z"/><path class="cls-28" d="M1057.29,2958.5l4.4,87.08a19.88,19.88,0,0,0,17,18.7,77.46,77.46,0,0,0,35.33-2.93,23.53,23.53,0,0,0,15.81-18.08L1145,2958.5Z"/><path class="cls-4" d="M511.54,3217.84c-23.13-3.75-33.6-17.75-38-32.71l-.09.41c-3.4,15.78,4.49,32.13,20.27,39.91,19.06,9.4,39.91,11,56.1,10.22,17.36-.83,33.3-9.2,42.06-22.58l.14-.21C574.6,3222.93,550.13,3224.11,511.54,3217.84Z"/><path class="cls-29" d="M620.63,2985.33H581.85c-59.07-1.41-96.16,143.64-108.3,199.8,4.39,15,14.86,29,38,32.71,38.59,6.27,63.06,5.09,80.49-5,31.91-48.88,47.73-120.49,55.33-162.27C656,3003.08,620.63,2985.33,620.63,2985.33Z"/><path class="cls-30" d="M586.83,2904.51l-21.53,85.64a23.25,23.25,0,0,0,12.09,26.34c12.05,6.18,29,12.68,44.6,10.8a19.42,19.42,0,0,0,15.84-12.95l31.61-90.1Z"/><path class="cls-31" d="M1344.3,1776.55S1151.87,2979.38,1155,2986c0,0-53.14,24.15-111.08,3.08,0,0,17.4-643,58.17-889.54,0,0-328.4,574.71-432.69,861.08,0,0-54.39-6.49-99.42-36.12,0,0,353.6-1034.45,447.94-1172.24Z"/><path class="cls-32" d="M1335.33,997.74c-32.37-67.88-245.3-84.92-450-17.29-43.09,14.23-47.45,80.87-58.06,124.62-17.9,73.78,55.75,177.4,107.33,142.91,51.87,140,63.76,339.79,68.84,430.22,1.68,29.77-24,57.25-35.68,84.74l-169.48,439.8c-2.52,37.16,475.6,134.07,483.92,93.4C1405.64,1693,1384.07,1100,1335.33,997.74Z"/><path class="cls-33" d="M1058.1,769.45s-14.18,149.87-26.66,194.2a15.16,15.16,0,0,0,7.14,17.31c21.18,12.1,72,31.85,141.48-2.21a31.51,31.51,0,0,0,17.5-29.67l-6.12-144.83Z"/><path class="cls-34" d="M1194.49,577.71s45.34,104.15,48.38,158.81,14.83,90.14-48.38,101.14S1078,817.18,1049.2,762.73c0,0-45.2-83.9-35.06-118.26S1194.49,577.71,1194.49,577.71Z"/><path class="cls-35" d="M1070.8,723.58l3.59-1.58a8.67,8.67,0,0,0,4.24-11.92c-8.91-17.22-26.28-56.68-3.84-65.89C1103.72,632.33,1218.3,609,1243,568.3c23.76-39.07,2.7-89.51-28.94-103.86a4.34,4.34,0,0,0-5.69,1.86l-2.64,5a4.29,4.29,0,0,1-7.92-.82h0a4.28,4.28,0,0,0-7.74-1.1c-7.6,12.16-28.11,31.88-83,42-78,14.4-129.52,46-130.81,99.83a4.31,4.31,0,0,1-6.65,3.55c-5.75-3.51-15-5.16-27.28,5.19-21.41,18-12.65,64.72,34.29,103.14a4.26,4.26,0,0,1-.2,6.88c-8.51,5.54-21.2,18.72,11.68,36.29,34,18.18,59.39,16.69,69.16,15.07a4.27,4.27,0,0,0,3.47-5.16l-10.43-47.36a4.3,4.3,0,0,1,4.19-5.22Z"/><path class="cls-36" d="M1072.76,733.58s-17.3-66.53-47.12-47.88,15.48,74.54,39.46,77Z"/><path class="cls-37" d="M1387,1611.3C1228,1503,1133.43,1512.63,1030.87,1367L885.32,980.45c-82.59,17.29-109.52,394.44,91.35,548.33,130.35,89.3,271.69,165,428.61,165Z"/><path class="cls-38" d="M1439.24,1610.21s-21.71-25-9.34-62.85,96.72-58.06,96.72-58.06,175.27,117.34,22.11,96.93C1516.86,1582,1482.45,1624.34,1439.24,1610.21Z"/><path class="cls-39" d="M1405.28,1693.83s-29.27-15.54-31.35-55.27,69.32-89,69.32-89S1649,1595.9,1498.79,1632C1467.53,1639.54,1450.69,1691.45,1405.28,1693.83Z"/></g></svg>