<svg xmlns="http://www.w3.org/2000/svg" xmlns:xlink="http://www.w3.org/1999/xlink" viewBox="0 0 3710 3710"><defs><style>.cls-1{fill:url(#linear-gradient);}.cls-2{fill:#7d97f4;}.cls-3{fill:#bdd0fb;}.cls-4{fill:url(#linear-gradient-2);}.cls-5{fill:#fff;opacity:0.78;}.cls-6{fill:url(#linear-gradient-3);}.cls-7{fill:url(#linear-gradient-4);}.cls-8{fill:url(#linear-gradient-5);}</style><linearGradient id="linear-gradient" x1="-8207.2" y1="723.95" x2="-12004.97" y2="5052.79" gradientTransform="matrix(-1, 0, 0, 1, -7369.63, 0)" gradientUnits="userSpaceOnUse"><stop offset="0" stop-color="#09005d"/><stop offset="1" stop-color="#1a0f91"/></linearGradient><linearGradient id="linear-gradient-2" x1="734.71" y1="1797.91" x2="3119.42" y2="1797.91" gradientUnits="userSpaceOnUse"><stop offset="0" stop-color="#dae3fe"/><stop offset="1" stop-color="#e9effd"/></linearGradient><linearGradient id="linear-gradient-3" x1="1846.26" y1="2159.7" x2="2852.41" y2="2159.7" gradientTransform="matrix(1, 0, 0, 1, 0, 0)" xlink:href="#linear-gradient"/><linearGradient id="linear-gradient-4" x1="1641.8" y1="1287.33" x2="2070.22" y2="1287.33" gradientTransform="matrix(1, 0, 0, 1, 0, 0)" xlink:href="#linear-gradient"/><linearGradient id="linear-gradient-5" x1="2132.84" y1="1280.18" x2="1580.21" y2="2373.15" gradientTransform="matrix(1, 0, 0, 1, 0, 0)" xlink:href="#linear-gradient"/></defs><g id="Illustration"><path class="cls-1" d="M359.74,1883.55c0,786,661.27,1423.17,1477,1423.17s1513.53-665,1513.53-1451S2652.45,460.38,1836.73,460.38,359.74,1097.56,359.74,1883.55Z"/><path class="cls-2" d="M3234.29,1537.51a10.25,10.25,0,0,0,2.63-.33,9.8,9.8,0,0,0,7.24-12,1253.07,1253.07,0,0,0-60.34-169.55,10.42,10.42,0,0,0-13.37-5.21,9.71,9.71,0,0,0-5.42,12.89,1231.27,1231.27,0,0,1,59.41,166.93A10.16,10.16,0,0,0,3234.29,1537.51Z"/><path class="cls-2" d="M3008.59,1092.76a10.46,10.46,0,0,0,6.13-2,9.6,9.6,0,0,0,2-13.76c-273.65-349.66-714.45-558.4-1179.12-558.4-198.45,0-390.4,38.78-570.5,115.21a9.69,9.69,0,0,0-5.22,12.95,10.37,10.37,0,0,0,13.45,5.05c177.49-75.35,366.67-113.55,562.27-113.55,458.31,0,893,205.82,1162.82,550.56A10.29,10.29,0,0,0,3008.59,1092.76Z"/><path class="cls-3" d="M560.69,1883.55c0,680.37,572.41,1231.91,1278.5,1231.91s1310.12-575.64,1310.12-1256-604-1207.81-1310.12-1207.81S560.69,1203.19,560.69,1883.55Z"/><path class="cls-3" d="M560.69,1883.55c0-680.36,572.41-1231.91,1278.5-1231.91,382.35,0,734.71,154.72,977.51,404.57l-984.87,789.6L1629.37,3098.86C1023.11,3002.39,560.69,2495.05,560.69,1883.55Z"/><path class="cls-4" d="M734.71,1797.91c0,614,527.32,1111.78,1177.79,1111.78s1206.92-519.51,1206.92-1133.53S2563,686.13,1912.5,686.13,734.71,1183.89,734.71,1797.91Z"/><path class="cls-5" d="M2822.58,1819.66c3.16,52.29,49.71,92.22,104,89.17s95.7-47.9,92.54-100.19-49.71-92.22-104-89.18S2819.42,1767.36,2822.58,1819.66Z"/><path class="cls-5" d="M696.05,1938.92c3.15,52.29,49.71,92.22,104,89.17s95.71-47.9,92.55-100.19-49.72-92.22-104-89.17S692.89,1886.63,696.05,1938.92Z"/><path class="cls-5" d="M2031.26,2645.33c-53.48,9.41-88.91,58.81-79.14,110.34s61,85.67,114.52,76.26,88.91-58.81,79.14-110.34S2084.74,2635.92,2031.26,2645.33Z"/><path class="cls-5" d="M1648.53,770.92c-53.48,9.41-88.92,58.82-79.15,110.34s61,85.67,114.52,76.26,88.91-58.81,79.14-110.34S1702,761.51,1648.53,770.92Z"/><path class="cls-5" d="M1331.48,2699.54c-10,24.32-7.51,47.09,5.58,50.86s31.81-12.89,41.81-37.2,7.5-47.09-5.58-50.86S1341.48,2675.22,1331.48,2699.54Z"/><path class="cls-5" d="M2187,929.12c-10,24.31-7.51,47.08,5.58,50.85s31.8-12.88,41.81-37.2,7.5-47.09-5.59-50.86S2197,904.8,2187,929.12Z"/><path class="cls-5" d="M884.79,2480.18c-21.65,15.78-31.78,36.49-22.63,46.26s34.12,4.9,55.78-10.87,31.78-36.5,22.63-46.26S906.44,2464.41,884.79,2480.18Z"/><path class="cls-5" d="M2647.92,1271.45c-21.65,15.78-31.79,36.49-22.63,46.26s34.12,4.9,55.77-10.88,31.79-36.49,22.64-46.26S2669.57,1255.67,2647.92,1271.45Z"/><path class="cls-5" d="M828.69,1395.81c-24.51-11.24-48.26-10.37-53,2s11.21,31.44,35.72,42.69,48.26,10.36,53-2S853.2,1407.06,828.69,1395.81Z"/><path class="cls-5" d="M2754.48,2346.56c-24.51-11.25-48.25-10.37-53,2s11.21,31.44,35.73,42.68,48.25,10.37,53-2S2779,2357.8,2754.48,2346.56Z"/><path class="cls-5" d="M1235.58,990.75c-14.88-21.88-35.65-33-46.38-24.86s-7.36,32.48,7.53,54.35,35.66,33,46.38,24.86S1250.47,1012.62,1235.58,990.75Z"/><path class="cls-5" d="M2369.13,2622.07c-14.89-21.88-35.66-33-46.39-24.86s-7.36,32.48,7.53,54.35,35.66,33,46.39,24.86S2384,2643.94,2369.13,2622.07Z"/><path class="cls-6" d="M1868.67,1845l541.15,312.4c10.48,6.05,22.75-3,22.4-16.6l-2.13-80.63c-.41-15.68,15.55-24.37,25.72-14l391.28,398.75c12,12.2,2.12,34.85-13.48,31l-503.93-124.55c-12.06-3-16.43-20.29-7.65-30.31l59-67.33c7.29-8.33,5.73-22.4-3.15-28.32L1854,1876.56c-7.3-4.86-9.91-15.57-5.88-24.13h0C1852.14,1844,1861.21,1840.66,1868.67,1845Z"/><path class="cls-2" d="M2786.24,2443c5,0,9.59-3.25,11.88-8.73a16.86,16.86,0,0,0-3.51-18.68L2709,2333.69a6.35,6.35,0,0,0-9.82,1.09,9,9,0,0,0,.93,11.38l85.62,81.93c-114.08-30.16-381.28-97.56-386.82-98.2-3.74-.51-7.26,2.76-7.66,7.21s2.34,8.3,6.08,8.84c8,1.48,212.78,53,386,96.71A12.2,12.2,0,0,0,2786.24,2443Z"/><path class="cls-7" d="M1796.52,1813.81l1.57-541.89c-.26-12-18.69-19.45-33.65-13.61l-89,34.74c-17.3,6.77-37.77-4.21-33-17.69l184-518.1c5.63-15.85,37.64-16.12,43.8-.36l199.11,508.95c4.77,12.18-11.69,23.19-28.83,19.28l-115.13-26.24c-14.23-3.24-29,3.91-29.61,14.39l-54,541c-.54,8.62-10.79,15.35-23.09,15.17h0C1806.5,1829.25,1796.71,1822.35,1796.52,1813.81Z"/><path class="cls-2" d="M2008.28,1216.16a14,14,0,0,0,3.73-.49c5.18-1.42,7.76-5.48,5.85-9.13-3.71-7.84-83.61-215-151-390.33-2.39-6.2-9.91-10.28-19.32-10.12-9.18.16-16.65,4.5-18.59,10.8L1794.64,928.1c-1.18,3.85,2.31,7.67,7.82,8.49s10.92-1.61,12.12-5.47l34.29-111.21c42.88,116,147,386.4,149.92,391.72C2000.37,1214.45,2004.21,1216.16,2008.28,1216.16Z"/><ellipse class="cls-8" cx="1845.79" cy="1847.89" rx="105.13" ry="101.3"/></g></svg>