<?xml version="1.0" encoding="utf-8"?>
<!-- Generator: Adobe Illustrator 23.0.6, SVG Export Plug-In . SVG Version: 6.00 Build 0)  -->
<svg version="1.1" id="Vrstva_1" xmlns="http://www.w3.org/2000/svg" xmlns:xlink="http://www.w3.org/1999/xlink" x="0px" y="0px"
	 viewBox="0 0 2475 1650" style="enable-background:new 0 0 2475 1650;" xml:space="preserve">
<style type="text/css">
	.st0{fill:url(#SVGID_1_);}
	.st1{fill:url(#SVGID_2_);}
	.st2{fill:#FFFFFF;}
	.st3{clip-path:url(#SVGID_4_);}
	.st4{fill:#BDD0FB;}
	.st5{fill:#91B3FA;}
	.st6{fill:url(#SVGID_5_);}
	.st7{fill:url(#SVGID_6_);}
	.st8{fill:url(#SVGID_7_);}
	.st9{fill:url(#SVGID_8_);}
	.st10{fill:url(#SVGID_9_);}
	.st11{fill:url(#SVGID_10_);}
	.st12{fill:url(#SVGID_11_);}
</style>
<g id="Background">
</g>
<g id="Illustration">
	<g>
		
			<linearGradient id="SVGID_1_" gradientUnits="userSpaceOnUse" x1="1204.1769" y1="2281.7505" x2="1291.4066" y2="210.0157" gradientTransform="matrix(1 0 0 -1 0 2532)">
			<stop  offset="0" style="stop-color:#FE7062"/>
			<stop  offset="1" style="stop-color:#FF928E"/>
		</linearGradient>
		<path class="st0" d="M297.45,608.44v864.67c0,63.63,61.75,115.21,137.92,115.21h1604.26c76.17,0,137.92-51.58,137.92-115.21
			V608.44H297.45z"/>
		
			<linearGradient id="SVGID_2_" gradientUnits="userSpaceOnUse" x1="1203.6694" y1="2726.7222" x2="1287.4677" y2="736.4862" gradientTransform="matrix(1 0 0 -1 0 2532)">
			<stop  offset="0" style="stop-color:#E1473D"/>
			<stop  offset="1" style="stop-color:#E9605A"/>
		</linearGradient>
		<path class="st1" d="M1708.5,350.97l-407.78-223.31c-39.67-21.72-86.79-21.72-126.46-0.01L766.5,350.92l-471,257.85l471,257.22
			l471,257.22l471-257.51l471-256.93L1708.5,350.97z"/>
		<g>
			<g>
				<path class="st2" d="M334.28,1550.93c-0.77,0-1.56-0.24-2.19-0.74c-1.37-1.1-1.49-2.99-0.28-4.22l587.45-598.18
					c1.21-1.23,3.29-1.35,4.66-0.24c1.37,1.1,1.49,2.99,0.28,4.22l-587.46,598.16C336.08,1550.59,335.18,1550.93,334.28,1550.93z"/>
			</g>
			<g>
				<path class="st2" d="M2140.71,1550.93c-0.9,0-1.82-0.34-2.47-1L1550.8,951.77c-1.21-1.23-1.09-3.12,0.28-4.22
					c1.37-1.1,3.45-0.99,4.66,0.24l587.45,598.17c1.21,1.23,1.09,3.12-0.28,4.22C2142.28,1550.68,2141.51,1550.93,2140.71,1550.93z"
					/>
			</g>
		</g>
	</g>
	<g>
		<g>
			<g>
				<g>
					<defs>
						<polygon id="SVGID_3_" points="430.33,668.73 1244,1131.43 2011.28,696.08 2011.28,22.05 494.21,22.05 						"/>
					</defs>
					<clipPath id="SVGID_4_">
						<use xlink:href="#SVGID_3_"  style="overflow:visible;"/>
					</clipPath>
					<g class="st3">
						<g>
							<path class="st4" d="M1794.19,216.31H553.66c-21.88,0-40,17.88-40,38.49v948.39h1458.48V386.61L1794.19,216.31z"/>
							<path class="st5" d="M1971.43,386.61l-162.78,1.32c-4.31,0.03-7.69-1.54-10.76-4.41c-3.06-2.87-3.37-6.77-3.37-10.82V217.48
								L1971.43,386.61z"/>
						</g>
						<g>
							
								<linearGradient id="SVGID_5_" gradientUnits="userSpaceOnUse" x1="1307.5255" y1="2521.9749" x2="1162.2538" y2="1000.8891" gradientTransform="matrix(1 0 0 -1 0 2532)">
								<stop  offset="0" style="stop-color:#4042E2"/>
								<stop  offset="1" style="stop-color:#4F52FF"/>
							</linearGradient>
							<path class="st6" d="M1564.64,662.42c0,35.65-6.04,68.28-18.13,97.87c-12.09,29.59-29.17,52.8-51.26,69.63
								c-22.08,16.83-47.7,25.26-76.88,25.26c-19.45,0-36.66-4.39-51.64-13.19c-14.98-8.79-25.76-20.37-32.33-34.72h-6.3
								c-28.39,31.94-64.52,47.91-108.42,47.91c-46.52,0-83.18-13.19-109.99-39.56c-26.8-26.37-40.21-62.46-40.21-108.26
								c0-52.24,17.61-94.33,52.82-126.27s81.21-47.91,137.98-47.91c22.6,0,47.5,2.05,74.71,6.13c27.19,4.08,49.61,8.97,67.21,14.66
								l-9.06,181.6c0,34.42,9.99,51.62,29.96,51.62c16.82,0,30.23-11.58,40.21-34.72c9.99-23.15,14.98-53.43,14.98-90.81
								c0-39.87-8.81-75.08-26.42-105.66s-42.37-53.92-74.32-70c-31.93-16.1-68.4-24.14-109.4-24.14
								c-53.1,0-99.22,10.28-138.38,30.83c-39.17,20.55-69.19,50.2-90.08,88.95c-20.89,38.75-31.34,83.5-31.34,134.25
								c0,68.33,19.38,120.77,58.14,157.28c38.77,36.52,94.94,54.78,168.54,54.78c27.86,0,58.48-2.91,91.85-8.73
								c33.38-5.82,66.24-14.29,98.56-25.44v71.33c-56.25,22.53-118.67,33.79-187.26,33.79c-99.87,0-177.73-24.75-233.58-74.28
								c-55.85-49.53-83.77-118.35-83.77-206.5c0-61.16,14.26-116.68,42.77-166.58c28.52-49.89,69.12-89.01,121.82-117.36
								c52.7-28.35,113.35-42.53,181.94-42.53c57.82,0,109.48,11.15,154.93,33.42c45.47,22.28,80.56,53.97,105.26,95.08
								C1552.3,561.28,1564.64,608.7,1564.64,662.42z M1160.95,708.84c0,52.24,22.6,78.36,67.8,78.36
								c23.65,0,41.65-7.86,54.02-23.58c12.35-15.71,19.84-41.29,22.48-76.7l5.12-82.07c-13.41-2.72-28.52-4.08-45.33-4.08
								c-32.85,0-58.42,9.66-76.68,28.98C1170.09,649.06,1160.95,675.42,1160.95,708.84z"/>
						</g>
					</g>
				</g>
			</g>
		</g>
	</g>
	<g>
		<g>
			
				<linearGradient id="SVGID_6_" gradientUnits="userSpaceOnUse" x1="566.0951" y1="1781.9061" x2="568.8618" y2="1054.4222" gradientTransform="matrix(1 0 0 -1 0 2532)">
				<stop  offset="0" style="stop-color:#09005D"/>
				<stop  offset="1" style="stop-color:#1A0F91"/>
			</linearGradient>
			<path class="st7" d="M788.84,847.69c-0.1,102.83-0.93,457.53-7.46,583.09c-0.69,13.31-10.63,23.79-22.71,23.98
				c-59.78,0.91-278.89,1.81-376.48-4.76c-20.33-1.36-36.09-19.86-35.97-42.32c0.5-107.92,3.15-411.47,17.07-550.24
				c1.66-16.62,13.84-29.65,28.98-31c65.22-5.81,285.55-18.76,369.83-10.97C777.25,816.9,788.86,830.88,788.84,847.69z"/>
			
				<linearGradient id="SVGID_7_" gradientUnits="userSpaceOnUse" x1="-2003.2163" y1="1556.8116" x2="-2873.0352" y2="444.0977" gradientTransform="matrix(-0.9998 -0.0221 0.0221 -0.9998 -1572.8486 2475.3235)">
				<stop  offset="0" style="stop-color:#4042E2"/>
				<stop  offset="1" style="stop-color:#4F52FF"/>
			</linearGradient>
			<path class="st8" d="M761.45,878.68c1.26,83.03,4.91,359.25-0.7,461.23c-0.82,14.9-11.78,26.75-25.31,27.34
				c-55.76,2.43-245.86,6.39-327.35-2.53c-14.67-1.61-25.89-14.95-26.32-31.19c-2.14-84.72-8-341.97-2.54-442.82
				c0.88-16.09,12.5-29,27.08-30.14c60.36-4.71,262.51-14.67,331.8-9.05C751.14,852.57,761.22,864.31,761.45,878.68z"/>
			
				<linearGradient id="SVGID_8_" gradientUnits="userSpaceOnUse" x1="536.1723" y1="1698.7708" x2="618.6635" y2="1698.7708" gradientTransform="matrix(1 0 0 -1 0 2532)">
				<stop  offset="0" style="stop-color:#4042E2"/>
				<stop  offset="1" style="stop-color:#4F52FF"/>
			</linearGradient>
			<path class="st9" d="M618.66,832.18L618.66,832.18c-0.08,3.15-2.36,5.71-5.22,5.81c-14.13,0.51-53.93,2-71.72,2.76
				c-3.5,0.14-6.18-3.37-5.42-7.16l0.13-0.65c0.51-2.57,2.52-4.49,4.89-4.68c12.04-0.95,48.35-3.57,72.32-2.12
				C616.53,826.32,618.73,829,618.66,832.18z"/>
		</g>
		<g>
			
				<linearGradient id="SVGID_9_" gradientUnits="userSpaceOnUse" x1="430.3319" y1="1421.7837" x2="710.4519" y2="1421.7837" gradientTransform="matrix(1 0 0 -1 0 2532)">
				<stop  offset="0" style="stop-color:#DAE3FE"/>
				<stop  offset="1" style="stop-color:#E9EFFD"/>
			</linearGradient>
			<ellipse class="st10" cx="570.39" cy="1110.22" rx="140.06" ry="131.94"/>
			
				<linearGradient id="SVGID_10_" gradientUnits="userSpaceOnUse" x1="483.3012" y1="1421.7916" x2="657.4949" y2="1421.7916" gradientTransform="matrix(1 0 0 -1 0 2532)">
				<stop  offset="0" style="stop-color:#4042E2"/>
				<stop  offset="1" style="stop-color:#4F52FF"/>
			</linearGradient>
			<path class="st11" d="M656.55,1144.71c-2.11-7.05-7.59-12.76-14.83-15.47l-10.08-3.76c-8.11-3.03-17.37-0.57-22.59,6.02
				l-8.97,11.29c-14.08,0.38-30.35-4.56-44.77-14.73c-13.55-9.55-22.88-21.88-26.93-33.97c-0.07-0.18,0.01-0.35,0.18-0.47
				c0.16-0.1,0.37-0.1,0.51,0.01l8.1-10.18c6.02-7.56,5.84-18.01-0.4-25.41l-6.7-7.93c-4.87-5.78-12.31-9.08-20.14-8.97
				c-7.82,0.11-15.16,3.63-19.85,9.54c-2.43,3.06-4.2,6.5-5.31,10.22c-7.42,24.72,13.71,62.1,52.71,89.6
				c38.97,27.47,82.97,36.05,106.07,22.4c3.49-2.06,6.51-4.62,8.96-7.7C657.17,1159.33,658.67,1151.76,656.55,1144.71z"/>
		</g>
		<g>
			
				<linearGradient id="SVGID_11_" gradientUnits="userSpaceOnUse" x1="360.6219" y1="1155.5537" x2="405.2519" y2="1155.5537" gradientTransform="matrix(1 0 0 -1 0 2532)">
				<stop  offset="0" style="stop-color:#4042E2"/>
				<stop  offset="1" style="stop-color:#4F52FF"/>
			</linearGradient>
			<path class="st12" d="M403.7,1431.74c-23.58,0-43.08-18.08-43.08-40.28v-68.84c0-0.81,0.65-1.46,1.51-1.46
				c0.86,0,1.51,0.65,1.51,1.46v68.84c0,20.6,18.15,37.35,40.02,37.35c0.85,0,1.59,0.65,1.59,1.46
				C405.23,1431.08,404.56,1431.74,403.7,1431.74z"/>
		</g>
	</g>
</g>
</svg>
