<?xml version="1.0" encoding="utf-8"?>
<!-- Generator: Adobe Illustrator 23.0.6, SVG Export Plug-In . SVG Version: 6.00 Build 0)  -->
<svg version="1.1" xmlns="http://www.w3.org/2000/svg" xmlns:xlink="http://www.w3.org/1999/xlink" x="0px" y="0px"
	 viewBox="0 0 3710 3710" style="enable-background:new 0 0 3710 3710;" xml:space="preserve">
<style type="text/css">
	.st0{fill:url(#SVGID_1_);}
	.st1{fill:url(#SVGID_2_);}
	.st2{fill:#91B3FA;}
	.st3{fill:#BDD0FB;}
	.st4{fill:url(#SVGID_3_);}
	.st5{opacity:0.69;clip-path:url(#SVGID_5_);}
	.st6{fill:url(#SVGID_6_);}
	.st7{fill:url(#SVGID_7_);}
	.st8{fill:url(#SVGID_8_);}
	.st9{fill:url(#SVGID_9_);}
	.st10{fill:url(#SVGID_10_);}
	.st11{fill:url(#SVGID_11_);}
	.st12{fill:url(#SVGID_12_);}
	.st13{fill:url(#SVGID_13_);}
	.st14{fill:url(#SVGID_14_);}
	.st15{fill:url(#SVGID_15_);}
	.st16{fill:url(#SVGID_16_);}
	.st17{fill:url(#SVGID_17_);}
	.st18{fill:url(#SVGID_18_);}
	.st19{fill:url(#SVGID_19_);}
	.st20{fill:url(#SVGID_20_);}
	.st21{clip-path:url(#SVGID_5_);}
	.st22{fill:url(#SVGID_21_);}
	.st23{fill:url(#SVGID_22_);}
	.st24{fill:url(#SVGID_23_);}
	.st25{fill:url(#SVGID_24_);}
	.st26{fill:url(#SVGID_25_);}
	.st27{fill:url(#SVGID_26_);}
	.st28{fill:url(#SVGID_27_);}
	.st29{fill:url(#SVGID_28_);}
	.st30{fill:url(#SVGID_29_);}
	.st31{fill:url(#SVGID_30_);}
	.st32{fill:url(#SVGID_31_);}
	.st33{fill:url(#SVGID_32_);}
	.st34{fill:url(#SVGID_33_);}
	.st35{fill:url(#SVGID_34_);}
	.st36{fill:url(#SVGID_35_);}
	.st37{opacity:0.36;fill:#FFFFFF;}
	.st38{fill:#FFFFFF;}
	.st39{fill:url(#SVGID_36_);}
	.st40{opacity:0.19;fill:#FFFFFF;}
	.st41{fill:url(#SVGID_37_);}
	.st42{fill:url(#SVGID_38_);}
	.st43{fill:url(#SVGID_39_);}
	.st44{fill:url(#SVGID_40_);}
	.st45{opacity:0.25;fill:#FFFFFF;enable-background:new    ;}
	.st46{opacity:0.78;fill:#FFFFFF;enable-background:new    ;}
	.st47{fill:url(#SVGID_41_);}
	.st48{fill:url(#SVGID_42_);}
	.st49{fill:url(#SVGID_43_);}
	.st50{fill:url(#SVGID_44_);}
	.st51{fill:url(#SVGID_45_);}
</style>
<g id="Background">
</g>
<g id="Illustration">
	<linearGradient id="SVGID_1_" gradientUnits="userSpaceOnUse" x1="3669.2673" y1="4211.271" x2="1031.0664" y2="934.791">
		<stop  offset="0" style="stop-color:#DAE3FE"/>
		<stop  offset="1" style="stop-color:#E9EFFD"/>
	</linearGradient>
	<path class="st0" d="M2952.51,2912.88c-61.09,63.45-118.9,104.37-164.57,136.7c-536.86,380.03-1172.1,269.26-1307.11,242.2
		c-199.36-39.95-584.73-117.17-863.34-440.42c-421.52-489.05-355.88-1259.52-28.92-1768.13c59.81-93.03,375.72-609.38,1017.8-692.19
		c388.58-50.11,841.55,50.96,1169.57,322.09C3464.49,1282.28,3415.47,2432.02,2952.51,2912.88z"/>
	<g>
		<g>
			<linearGradient id="SVGID_2_" gradientUnits="userSpaceOnUse" x1="3322.5544" y1="-2914.1396" x2="727.6177" y2="5533.8433">
				<stop  offset="0" style="stop-color:#4F52FF"/>
				<stop  offset="1" style="stop-color:#4042E2"/>
			</linearGradient>
			<polygon class="st1" points="2293.47,834.2 1342.68,735.67 391.89,847.09 391.89,3217.25 1342.68,3158.58 2293.47,3223.62 
				3243.08,3124.34 3243.08,779.11 			"/>
			<polygon class="st2" points="1363.09,3104.54 459.71,3160.2 459.71,911.78 1363.09,806.08 			"/>
			<polygon class="st3" points="2266.47,3166.25 1363.09,3104.54 1363.09,806.08 2266.47,899.55 			"/>
			<polygon class="st2" points="3168.72,3072.06 2266.47,3166.25 2266.47,899.55 3168.72,847.29 			"/>
			<linearGradient id="SVGID_3_" gradientUnits="userSpaceOnUse" x1="1342.6349" y1="1955.6273" x2="1363.0892" y2="1955.6273">
				<stop  offset="0" style="stop-color:#DAE3FE"/>
				<stop  offset="1" style="stop-color:#E9EFFD"/>
			</linearGradient>
			<rect x="1342.63" y="806.08" class="st4" width="20.45" height="2299.09"/>
		</g>
		<g>
			<defs>
				<polygon id="SVGID_4_" points="2265.03,896.53 1361.65,803.06 458.27,908.75 458.27,3157.18 1361.65,3101.52 2265.03,3163.22 
					3167.28,3069.04 3167.28,844.26 				"/>
			</defs>
			<clipPath id="SVGID_5_">
				<use xlink:href="#SVGID_4_"  style="overflow:visible;"/>
			</clipPath>
			<g class="st5">
				<linearGradient id="SVGID_6_" gradientUnits="userSpaceOnUse" x1="2601.5298" y1="1064.9952" x2="3336.7285" y2="-259.4463">
					<stop  offset="0" style="stop-color:#4F52FF"/>
					<stop  offset="1" style="stop-color:#4042E2"/>
				</linearGradient>
				<polygon class="st6" points="2528.02,922.25 2762.22,1101.45 2602.59,1251.12 2414.44,1076.09 				"/>
				<linearGradient id="SVGID_7_" gradientUnits="userSpaceOnUse" x1="1595.6536" y1="506.6317" x2="2330.8503" y2="-817.8061">
					<stop  offset="0" style="stop-color:#4F52FF"/>
					<stop  offset="1" style="stop-color:#4042E2"/>
				</linearGradient>
				<polygon class="st7" points="992.37,1274.01 1011.91,1076.09 1352.86,1175.05 1352.86,1426.16 				"/>
				<linearGradient id="SVGID_8_" gradientUnits="userSpaceOnUse" x1="3577.7427" y1="1606.894" x2="4312.9409" y2="282.4536">
					<stop  offset="0" style="stop-color:#4F52FF"/>
					<stop  offset="1" style="stop-color:#4042E2"/>
				</linearGradient>
				<polygon class="st8" points="2944.68,2505.42 3133.76,2410.99 3159.36,2602.54 2994.08,2655.63 				"/>
				<linearGradient id="SVGID_9_" gradientUnits="userSpaceOnUse" x1="2336.7617" y1="918.0244" x2="3071.9587" y2="-406.4137">
					<stop  offset="0" style="stop-color:#4F52FF"/>
					<stop  offset="1" style="stop-color:#4042E2"/>
				</linearGradient>
				<polygon class="st9" points="1162.99,2657.84 1352.86,2755.5 1542.13,2724.22 1525.03,2594.79 1352.86,2554.97 				"/>
				<linearGradient id="SVGID_10_" gradientUnits="userSpaceOnUse" x1="454.2094" y1="1915.1305" x2="1348.5114" y2="1915.1305">
					<stop  offset="0" style="stop-color:#DAE3FE"/>
					<stop  offset="1" style="stop-color:#E9EFFD"/>
				</linearGradient>
				<polygon class="st10" points="969.4,1279.7 454.21,1461.1 465.21,1503.45 539.62,1477.25 1016.35,1628 1024.32,1593.84 
					594.51,1457.92 963.34,1328.06 1307.44,1592.27 1260.09,1973.55 883.78,2004.66 552.86,2524.2 583.39,2550.56 903.91,2047.35 
					1293.33,2015.17 1348.51,1570.8 				"/>
				<linearGradient id="SVGID_11_" gradientUnits="userSpaceOnUse" x1="415.2303" y1="2599.7405" x2="833.1834" y2="2599.7405">
					<stop  offset="0" style="stop-color:#DAE3FE"/>
					<stop  offset="1" style="stop-color:#E9EFFD"/>
				</linearGradient>
				<polygon class="st11" points="808.6,2810.72 415.23,2422.51 439.81,2388.76 833.18,2776.97 				"/>
				<linearGradient id="SVGID_12_" gradientUnits="userSpaceOnUse" x1="1571.7675" y1="2095.7185" x2="2318.0225" y2="2095.7185">
					<stop  offset="0" style="stop-color:#DAE3FE"/>
					<stop  offset="1" style="stop-color:#E9EFFD"/>
				</linearGradient>
				<polygon class="st12" points="2318.02,2423.86 2083.28,1750.93 2048.06,1767.58 2171.56,2121.61 1571.77,2336.31 
					1582.94,2378.61 2185.92,2162.77 2282.81,2440.51 				"/>
				<linearGradient id="SVGID_13_" gradientUnits="userSpaceOnUse" x1="2452.3691" y1="2264.0308" x2="2847.4817" y2="2264.0308">
					<stop  offset="0" style="stop-color:#DAE3FE"/>
					<stop  offset="1" style="stop-color:#E9EFFD"/>
				</linearGradient>
				<polygon class="st13" points="2819.5,2292.93 2705.2,2437.66 2479.46,1921.91 2452.37,1937.98 2683.11,2465.16 2683.82,2464.74 
					2595.79,2576.2 2623.77,2606.15 2847.48,2322.88 				"/>
				<linearGradient id="SVGID_14_" gradientUnits="userSpaceOnUse" x1="2658.3767" y1="1173.8385" x2="3198.4824" y2="1173.8385">
					<stop  offset="0" style="stop-color:#DAE3FE"/>
					<stop  offset="1" style="stop-color:#E9EFFD"/>
				</linearGradient>
				<path class="st14" d="M2682.03,1398.68l-22.06-36.03c-0.96,0.8-1.56,1.46-1.6,1.51c12.08-13.76,175.86-244.49,283.01-396.23
					l13.37-18.94l243.72,286.56l-27.01,31.13l-214.1-251.73c-23.53,33.3-74.72,105.66-125.99,177.8
					C2689.41,1392.57,2685.49,1395.81,2682.03,1398.68z"/>
				<linearGradient id="SVGID_15_" gradientUnits="userSpaceOnUse" x1="1601.1877" y1="1319.3096" x2="2227.4353" y2="1319.3096">
					<stop  offset="0" style="stop-color:#DAE3FE"/>
					<stop  offset="1" style="stop-color:#E9EFFD"/>
				</linearGradient>
				<polygon class="st15" points="2190.95,1633.22 2114.58,1328.89 2021.24,1051.48 1603.44,1080.4 1601.19,1036.22 2046.56,1005.4 
					2150.83,1315.54 2227.44,1620.81 				"/>
				<linearGradient id="SVGID_16_" gradientUnits="userSpaceOnUse" x1="959.6839" y1="1161.563" x2="1355.9393" y2="1161.563">
					<stop  offset="0" style="stop-color:#DAE3FE"/>
					<stop  offset="1" style="stop-color:#E9EFFD"/>
				</linearGradient>
				<polygon class="st16" points="990,1283.39 959.68,1280.69 975.51,1039.74 1355.94,1131.27 1349.78,1165.94 1003.2,1082.55 				
					"/>
				<linearGradient id="SVGID_17_" gradientUnits="userSpaceOnUse" x1="2517.8364" y1="1083.3499" x2="2787.3743" y2="1083.3499">
					<stop  offset="0" style="stop-color:#DAE3FE"/>
					<stop  offset="1" style="stop-color:#E9EFFD"/>
				</linearGradient>
				<polygon class="st17" points="2597.82,1276.96 2578.84,1249.3 2737.07,1102.18 2517.84,918.47 2535.6,889.74 2787.37,1100.72 
									"/>
				<linearGradient id="SVGID_18_" gradientUnits="userSpaceOnUse" x1="2922.5857" y1="2136.855" x2="3211.3618" y2="2136.855">
					<stop  offset="0" style="stop-color:#DAE3FE"/>
					<stop  offset="1" style="stop-color:#E9EFFD"/>
				</linearGradient>
				<polygon class="st18" points="3211.36,2645.73 2959.17,1604.91 2922.59,1616.92 3112.92,2402.45 2934.88,2491.36 
					2946.87,2523.9 3117.95,2438.46 3138.45,2591.88 3005.24,2634.67 3013.33,2668.8 3165.61,2619.88 3174.78,2657.74 				"/>
				<linearGradient id="SVGID_19_" gradientUnits="userSpaceOnUse" x1="800.0454" y1="2845.7395" x2="1587.1602" y2="2845.7395">
					<stop  offset="0" style="stop-color:#DAE3FE"/>
					<stop  offset="1" style="stop-color:#E9EFFD"/>
				</linearGradient>
				<polygon class="st19" points="1359.37,3059.8 800.05,2800.76 814.1,2759.64 1345.76,3005.88 1497.11,2759.48 1361.07,2797.3 
					1129.34,2671.8 1145.38,2631.68 1365.11,2750.68 1587.16,2688.95 				"/>
				<linearGradient id="SVGID_20_" gradientUnits="userSpaceOnUse" x1="1565.436" y1="2761.0881" x2="2602.292" y2="2761.0881">
					<stop  offset="0" style="stop-color:#DAE3FE"/>
					<stop  offset="1" style="stop-color:#E9EFFD"/>
				</linearGradient>
				<polygon class="st20" points="2574.37,2584.72 2193.75,3064.3 1807.04,2645.8 1589.27,2325.8 1565.44,2347.78 1783.93,2668.84 
					1784.65,2669.89 2173.12,3090.3 2112.76,3166.35 2140.68,3196.38 2602.29,2614.75 				"/>
			</g>
			<g class="st21">
				<linearGradient id="SVGID_21_" gradientUnits="userSpaceOnUse" x1="1483.597" y1="444.431" x2="2218.7927" y2="-880.0049">
					<stop  offset="0" style="stop-color:#4F52FF"/>
					<stop  offset="1" style="stop-color:#4042E2"/>
				</linearGradient>
				<path class="st22" d="M1475.92,1614.28l-132.83-171.03c-297.69-122.16-636.74-248.46-899.75-262.97l1.62-39.78
					c268.65,14.82,612.59,143.22,913.6,266.87l4.09,1.68l138.65,178.51L1475.92,1614.28z"/>
				<linearGradient id="SVGID_22_" gradientUnits="userSpaceOnUse" x1="3167.0334" y1="1378.9061" x2="3902.2297" y2="54.4691">
					<stop  offset="0" style="stop-color:#4F52FF"/>
					<stop  offset="1" style="stop-color:#4042E2"/>
				</linearGradient>
				<path class="st23" d="M3146.6,2976.82c-289.98-207.23-617.98-435.34-845.87-523.55l-740.76,318.3l-11.85-37.36l751.94-323.1
					l5.65,2.15c231.64,87.95,564.74,319.5,858.78,529.63L3146.6,2976.82z"/>
				<linearGradient id="SVGID_23_" gradientUnits="userSpaceOnUse" x1="1867.9536" y1="657.7864" x2="2603.1514" y2="-666.6533">
					<stop  offset="0" style="stop-color:#4F52FF"/>
					<stop  offset="1" style="stop-color:#4042E2"/>
				</linearGradient>
				<polygon class="st24" points="1700.17,1471.48 1472.74,816.09 1504.46,801.17 1731.89,1456.57 				"/>
				<linearGradient id="SVGID_24_" gradientUnits="userSpaceOnUse" x1="2708.0781" y1="1124.1406" x2="3443.2759" y2="-200.2993">
					<stop  offset="0" style="stop-color:#4F52FF"/>
					<stop  offset="1" style="stop-color:#4042E2"/>
				</linearGradient>
				<path class="st25" d="M2730.75,1652.9c-58.83-265.66-172.16-448.62-346.47-559.34l16.38-34.96
					c96.17,61.09,175.92,144.41,237.03,247.65c55.5,93.78,96.78,203.91,126.18,336.7L2730.75,1652.9z"/>
				<linearGradient id="SVGID_25_" gradientUnits="userSpaceOnUse" x1="2040.6588" y1="753.6531" x2="2775.8572" y2="-570.7877">
					<stop  offset="0" style="stop-color:#4F52FF"/>
					<stop  offset="1" style="stop-color:#4042E2"/>
				</linearGradient>
				<polygon class="st26" points="954.92,2744.87 926.36,2722.59 1262.43,2120.32 1290.99,2142.61 				"/>
				<linearGradient id="SVGID_26_" gradientUnits="userSpaceOnUse" x1="2739.4561" y1="1141.558" x2="3474.6519" y2="-182.8779">
					<stop  offset="0" style="stop-color:#4F52FF"/>
					<stop  offset="1" style="stop-color:#4042E2"/>
				</linearGradient>
				<polygon class="st27" points="2825.13,1675.53 1837.84,1629.71 1839.21,1589.92 2819.05,1635.39 3178.49,1463.85 
					3191.46,1500.7 				"/>
				<linearGradient id="SVGID_27_" gradientUnits="userSpaceOnUse" x1="2090.2598" y1="781.1888" x2="2825.4583" y2="-543.2524">
					<stop  offset="0" style="stop-color:#4F52FF"/>
					<stop  offset="1" style="stop-color:#4042E2"/>
				</linearGradient>
				<polygon class="st28" points="465.87,2974.61 453.56,2937.45 1350.5,2534.69 1526.72,2555.07 1523.34,2594.7 1355.22,2575.25 
									"/>
				<linearGradient id="SVGID_28_" gradientUnits="userSpaceOnUse" x1="1911.0317" y1="681.7015" x2="2646.2283" y2="-642.736">
					<stop  offset="0" style="stop-color:#4F52FF"/>
					<stop  offset="1" style="stop-color:#4042E2"/>
				</linearGradient>
				<path class="st29" d="M1621.77,2166.12c-385.1-4.75-746.01-27.53-930.09-251.12l24.7-27.56
					c174.88,212.43,528.23,234.2,905.75,238.86L1621.77,2166.12z"/>
				<linearGradient id="SVGID_29_" gradientUnits="userSpaceOnUse" x1="2457.9678" y1="985.3045" x2="3193.165" y2="-339.1344">
					<stop  offset="0" style="stop-color:#4F52FF"/>
					<stop  offset="1" style="stop-color:#4042E2"/>
				</linearGradient>
				<polygon class="st30" points="1587.98,3108.47 1507.48,2550.24 1508.71,2545.69 1740.57,1685.17 1844.5,1480.36 
					2255.77,1221.61 2530.11,870.15 2555.43,896.94 2277.17,1253.42 1869.12,1510.14 1772.03,1701.47 1542.58,2553.06 
					1621.72,3101.88 				"/>
				<linearGradient id="SVGID_30_" gradientUnits="userSpaceOnUse" x1="2644.5989" y1="1088.9019" x2="3379.7937" y2="-235.5326">
					<stop  offset="0" style="stop-color:#4F52FF"/>
					<stop  offset="1" style="stop-color:#4042E2"/>
				</linearGradient>
				<polygon class="st31" points="3186.26,3065.7 2705.71,2053.42 1817.34,1674.56 1659.22,1630.65 1085.34,1580.15 451.66,2120.71 
					431.44,2088.59 1075.31,1539.33 1081.61,1539.88 1664.51,1591.18 1827.22,1636.36 1828.16,1636.76 2729.47,2021.14 
					2732.56,2027.65 3216.2,3046.44 				"/>
			</g>
		</g>
		<linearGradient id="SVGID_31_" gradientUnits="userSpaceOnUse" x1="1641.5552" y1="1578.6738" x2="1871.053" y2="1578.6738">
			<stop  offset="0" style="stop-color:#DAE3FE"/>
			<stop  offset="1" style="stop-color:#E9EFFD"/>
		</linearGradient>
		<ellipse class="st32" cx="1756.3" cy="1578.67" rx="114.75" ry="114.65"/>
		<linearGradient id="SVGID_32_" gradientUnits="userSpaceOnUse" x1="2173.3777" y1="827.3264" x2="2908.5759" y2="-497.1138">
			<stop  offset="0" style="stop-color:#4F52FF"/>
			<stop  offset="1" style="stop-color:#4042E2"/>
		</linearGradient>
		<ellipse class="st33" cx="1756.3" cy="1578.67" rx="82.22" ry="82.15"/>
	</g>
	<g>
		<linearGradient id="SVGID_33_" gradientUnits="userSpaceOnUse" x1="2871.3801" y1="2339.5046" x2="2060.377" y2="2977.4927">
			<stop  offset="0" style="stop-color:#FF928E"/>
			<stop  offset="1" style="stop-color:#FE7062"/>
		</linearGradient>
		<circle class="st34" cx="2387.19" cy="2720.4" r="150.78"/>
		<g>
			<linearGradient id="SVGID_34_" gradientUnits="userSpaceOnUse" x1="1004.3264" y1="2383.7783" x2="2996.5178" y2="908.0787">
				<stop  offset="0" style="stop-color:#E1473D"/>
				<stop  offset="1" style="stop-color:#E9605A"/>
			</linearGradient>
			<path class="st35" d="M3147.01,1055.6c0,286.77-431.93,1018.4-656.93,1379.28c-17.46,28-55.07,45.01-124.71,45.01
				c-33,0-20.02-17.08-37.48-45.08C2102.87,2073.9,1671,1342.34,1671,1055.6c0-373.94,330.42-677.07,738.01-677.07
				C2816.59,378.53,3147.01,681.67,3147.01,1055.6z"/>
			<linearGradient id="SVGID_35_" gradientUnits="userSpaceOnUse" x1="2079.1919" y1="2428.3821" x2="2554.9812" y2="125.1343">
				<stop  offset="0" style="stop-color:#FF928E"/>
				<stop  offset="1" style="stop-color:#FE7062"/>
			</linearGradient>
			<path class="st36" d="M3103.37,1055.6c0,286.77-431.93,1018.4-656.93,1379.28c-17.46,28-48.13,45.03-81.13,45.01
				c-33-0.01-63.6-17.08-81.06-45.08c-225.02-360.92-656.89-1092.47-656.89-1379.21c0-373.94,330.42-677.07,738.01-677.07
				C2772.95,378.53,3103.37,681.67,3103.37,1055.6z"/>
			
				<ellipse transform="matrix(0.7071 -0.7071 0.7071 0.7071 -70.3673 2003.5986)" class="st37" cx="2383.37" cy="1086.74" rx="450.43" ry="450.43"/>
			<circle class="st37" cx="2339.72" cy="1042.47" r="327.49"/>
			<path class="st38" d="M2365.36,1658.02c-301.88,0-547.47-245.6-547.47-547.48c0-5.42,4.39-9.81,9.81-9.81s9.81,4.39,9.81,9.81
				c0,291.06,236.79,527.86,527.85,527.86s527.86-236.8,527.86-527.86s-236.8-527.86-527.86-527.86
				c-168.3,0-322.62,77.48-423.38,212.56c-3.24,4.34-9.39,5.24-13.73,2c-4.34-3.24-5.24-9.39-2-13.73
				c104.51-140.1,264.56-220.45,439.11-220.45c301.88,0,547.48,245.6,547.48,547.47
				C2912.84,1412.42,2667.24,1658.02,2365.36,1658.02z"/>
		</g>
	</g>
	<g>
		
			<linearGradient id="SVGID_36_" gradientUnits="userSpaceOnUse" x1="2856.4224" y1="2446.2202" x2="4046.9062" y2="2446.2202" gradientTransform="matrix(0.9772 -0.2124 0.2124 0.9772 -2082.7922 1074.6342)">
			<stop  offset="0" style="stop-color:#09005D"/>
			<stop  offset="1" style="stop-color:#1A0F91"/>
		</linearGradient>
		<path class="st39" d="M1918.71,2416.02l-996.02,628.75c-41.77,26.37-52.23,82.73-22.69,122.33l4.85,6.5
			c26.13,35.04,75.79,42.1,110.66,15.74l944.6-714.11L1918.71,2416.02z"/>
		
			<ellipse transform="matrix(0.9772 -0.2124 0.2124 0.9772 -386.0084 549.5255)" class="st40" cx="2364.38" cy="2071.17" rx="546.39" ry="536.53"/>
		
			<linearGradient id="SVGID_37_" gradientUnits="userSpaceOnUse" x1="2194.134" y1="1963.1874" x2="3339.2791" y2="538.3134" gradientTransform="matrix(0.9921 0.1258 -0.1258 0.9921 91.1333 178.9285)">
			<stop  offset="0" style="stop-color:#09005D"/>
			<stop  offset="1" style="stop-color:#1A0F91"/>
		</linearGradient>
		<path class="st41" d="M2237.57,1487.78c-328.12,71.32-537.34,390.33-467.3,712.53c70.03,322.2,392.8,525.58,720.92,454.26
			s537.34-390.33,467.3-712.53C2888.45,1619.83,2565.69,1416.45,2237.57,1487.78z M2472.56,2568.86
			c-279.92,60.84-555.27-112.66-615.02-387.53c-59.75-274.87,118.74-547.02,398.66-607.86c279.92-60.84,555.27,112.66,615.02,387.53
			C2930.96,2235.87,2752.48,2508.02,2472.56,2568.86z"/>
		<g>
			<path class="st3" d="M1830.09,2260.31c-0.57-0.07-1.07-0.45-1.27-1.03c-4.74-13.37-9.03-27.11-12.73-40.84
				c-0.22-0.83,0.27-1.69,1.1-1.91c0.83-0.23,1.69,0.27,1.91,1.1c3.68,13.66,7.94,27.32,12.66,40.61c0.29,0.81-0.14,1.7-0.95,1.99
				C1830.56,2260.32,1830.32,2260.34,1830.09,2260.31z M1798.7,2096.3c-0.74-0.09-1.33-0.71-1.36-1.49
				c-1.42-38.8,1.33-77.87,8.17-116.12c19.37-108.33,70.38-208.18,147.51-288.77c78.97-82.51,180.26-139.06,292.94-163.55
				c105.97-23.03,215.39-15.99,316.42,20.38c0.81,0.29,1.23,1.18,0.94,1.99c-0.29,0.81-1.18,1.23-1.99,0.94
				c-100.48-36.16-209.31-43.17-314.7-20.26c-112.07,24.36-212.82,80.61-291.35,162.67c-76.7,80.14-127.43,179.44-146.69,287.16
				c-6.8,38.04-9.54,76.89-8.13,115.46c0.03,0.86-0.64,1.58-1.5,1.62C1798.87,2096.31,1798.78,2096.31,1798.7,2096.3z"/>
		</g>
		<path class="st3" d="M972.78,3179.75c-34.69-4.4-55.62-19.35-62.22-44.45c-6.72-25.54,4.3-53.02,27.43-68.37l118.86-78.87
			c0.71-0.48,1.69-0.28,2.16,0.44c0.48,0.72,0.28,1.68-0.44,2.16l-118.86,78.87c-22.02,14.61-32.53,40.73-26.14,64.98
			c6.32,24,26.61,38.23,60.68,42.28c0,0,0.01,0,0.01,0c0.85,0.11,1.45,0.88,1.35,1.73c-0.1,0.85-0.88,1.46-1.73,1.36
			C973.52,3179.84,973.15,3179.79,972.78,3179.75z"/>
		<path class="st3" d="M1094.14,2966.6c-0.43-0.05-0.84-0.29-1.1-0.68c-0.48-0.72-0.28-1.68,0.44-2.16l15.4-10.22
			c0.71-0.48,1.69-0.28,2.16,0.44c0.48,0.72,0.28,1.68-0.44,2.16l-15.4,10.22C1094.88,2966.57,1094.5,2966.65,1094.14,2966.6z"/>
	</g>
	<g>
		<g>
			
				<linearGradient id="SVGID_38_" gradientUnits="userSpaceOnUse" x1="1724.0297" y1="-1872.1294" x2="3187.717" y2="-3435.3906" gradientTransform="matrix(1 0 0 1 0 2942)">
				<stop  offset="0" style="stop-color:#09005D"/>
				<stop  offset="1" style="stop-color:#1A0F91"/>
			</linearGradient>
			<path class="st42" d="M513.09,1794.54c0,293.41,237.97,531.25,531.52,531.25s544.66-248.24,544.66-541.65
				s-251.1-520.86-544.66-520.86S513.09,1501.14,513.09,1794.54z"/>
			<g>
				<path class="st2" d="M1547.52,1665.37c0.31,0,0.63-0.04,0.94-0.12c1.96-0.52,3.14-2.53,2.6-4.5
					c-5.72-21.46-13.03-42.77-21.72-63.29c-0.79-1.86-2.96-2.72-4.8-1.94c-1.86,0.8-2.74,2.95-1.95,4.82
					c8.56,20.21,15.75,41.17,21.38,62.32C1544.42,1664.27,1545.91,1665.37,1547.52,1665.37z"/>
				<path class="st2" d="M1466.3,1499.35c0.77,0,1.55-0.25,2.21-0.74c1.61-1.22,1.95-3.52,0.72-5.14
					c-98.49-130.53-257.1-208.45-424.32-208.45c-71.42,0-140.49,14.48-205.3,43c-1.86,0.82-2.7,2.99-1.87,4.84
					c0.81,1.86,2.98,2.69,4.84,1.89c63.87-28.13,131.94-42.39,202.34-42.39c164.94,0,321.36,76.83,418.47,205.51
					C1464.11,1498.84,1465.18,1499.35,1466.3,1499.35z"/>
			</g>
			
				<linearGradient id="SVGID_39_" gradientUnits="userSpaceOnUse" x1="5725.0146" y1="-1175.631" x2="5139.9839" y2="-469.1787" gradientTransform="matrix(-1 0 0 1 6752.8765 2942)">
				<stop  offset="0" style="stop-color:#FE7062"/>
				<stop  offset="1" style="stop-color:#FF928E"/>
			</linearGradient>
			<path class="st43" d="M585.39,1794.54c0,253.97,205.99,459.86,460.1,459.86s471.47-214.89,471.47-468.86
				s-217.36-450.86-471.47-450.86S585.39,1540.56,585.39,1794.54z"/>
			
				<linearGradient id="SVGID_40_" gradientUnits="userSpaceOnUse" x1="5993.3457" y1="-1442.6246" x2="5040.4033" y2="-476.8054" gradientTransform="matrix(-1 0 0 1 6752.8765 2942)">
				<stop  offset="0" style="stop-color:#FE7062"/>
				<stop  offset="1" style="stop-color:#FF928E"/>
			</linearGradient>
			<path class="st44" d="M585.39,1794.54c0-253.97,205.99-459.86,460.1-459.86c137.6,0,264.4,57.74,351.76,151.01l-354.42,294.75
				l-72.85,467.75C751.79,2212.18,585.39,2022.8,585.39,1794.54z"/>
			<path class="st45" d="M648.01,1762.57c0,229.21,189.75,415,423.84,415s434.32-193.93,434.32-423.13s-200.24-406.9-434.32-406.9
				C837.78,1347.55,648.01,1533.36,648.01,1762.57z"/>
			<path class="st46" d="M1399.37,1770.67c1.14,19.52,17.88,34.42,37.42,33.29c19.52-1.14,34.45-17.87,33.32-37.41
				c-1.14-19.52-17.88-34.42-37.42-33.29C1413.14,1734.41,1398.24,1751.16,1399.37,1770.67z"/>
			<path class="st46" d="M634.11,1815.2c1.14,19.52,17.88,34.42,37.42,33.29c19.54-1.14,34.45-17.87,33.32-37.41
				c-1.14-19.52-17.88-34.42-37.42-33.29C647.87,1778.92,632.97,1795.68,634.11,1815.2z"/>
			<path class="st46" d="M1114.59,2132.92c-19.24,3.52-32,21.97-28.47,41.2c3.51,19.23,21.96,31.99,41.22,28.46
				c19.24-3.52,32-21.94,28.47-41.2C1152.29,2142.16,1133.83,2129.41,1114.59,2132.92z"/>
			<path class="st46" d="M976.87,1379.2c-19.24,3.52-32,21.94-28.49,41.2c3.51,19.23,21.96,31.99,41.22,28.46
				c19.24-3.52,32-21.94,28.49-41.2C1014.56,1388.43,996.11,1375.7,976.87,1379.2z"/>
			<path class="st46" d="M862.78,2153.15c-3.6,9.07-2.7,17.57,2.01,18.98c4.71,1.41,11.45-4.81,15.04-13.89
				c3.6-9.07,2.7-17.57-2.01-18.98C873.11,2137.84,866.37,2144.09,862.78,2153.15z"/>
			<path class="st46" d="M1170.65,1438.26c-3.6,9.07-2.7,17.57,2.01,18.98c4.71,1.41,11.45-4.81,15.04-13.89
				c3.6-9.07,2.7-17.57-2.01-18.98C1180.97,1422.95,1174.24,1429.17,1170.65,1438.26z"/>
			<path class="st46" d="M702.03,2017.24c-7.8,5.89-11.43,13.62-8.15,17.27c3.29,3.64,12.28,1.82,20.07-4.06
				c7.8-5.89,11.43-13.62,8.15-17.27C718.8,2009.55,709.81,2011.35,702.03,2017.24z"/>
			<path class="st46" d="M1336.5,1566.04c-7.8,5.89-11.43,13.62-8.15,17.27c3.29,3.64,12.28,1.82,20.07-4.06
				c7.8-5.89,11.43-13.62,8.15-17.27C1353.29,1558.33,1344.3,1560.15,1336.5,1566.04z"/>
			<path class="st46" d="M681.83,1612.47c-8.82-4.19-17.37-3.87-19.09,0.74c-1.72,4.61,4.03,11.73,12.86,15.93
				c8.82,4.19,17.37,3.87,19.09-0.74C696.4,1623.79,690.65,1616.66,681.83,1612.47z"/>
			<path class="st46" d="M1374.87,1967.37c-8.82-4.19-17.37-3.87-19.09,0.74c-1.72,4.61,4.03,11.73,12.86,15.93
				c8.82,4.19,17.37,3.87,19.09-0.74C1389.44,1978.69,1383.67,1971.56,1374.87,1967.37z"/>
			<path class="st46" d="M828.26,1461.26c-5.36-8.16-12.82-12.32-16.7-9.28c-3.86,3.04-2.65,12.12,2.7,20.28
				c5.36,8.16,12.82,12.32,16.7,9.28C834.84,1478.51,833.62,1469.42,828.26,1461.26z"/>
			<path class="st46" d="M1236.18,2124.22c-5.36-8.16-12.82-12.32-16.7-9.28c-3.86,3.04-2.65,12.12,2.7,20.28
				c5.36,8.16,12.82,12.32,16.7,9.28C1242.75,2141.47,1241.53,2132.41,1236.18,2124.22z"/>
			<g>
				
					<linearGradient id="SVGID_41_" gradientUnits="userSpaceOnUse" x1="1272.9144" y1="-1751.9596" x2="1047.6936" y2="-1224.2024" gradientTransform="matrix(1 0 0 1 0 2942)">
					<stop  offset="0" style="stop-color:#4F52FF"/>
					<stop  offset="1" style="stop-color:#4042E2"/>
				</linearGradient>
				<path class="st47" d="M1030.97,1793.12l95.54-312.13c1.85-6.05-3-12.1-8.85-11.04l-34.79,6.27c-6.77,1.22-11.71-6.84-7.97-13.01
					l144-236.67c4.4-7.23,14.94-3.36,14.42,5.3l-16.85,280.08c-0.4,6.7-7.58,10.17-12.56,6.05l-33.53-27.57
					c-4.15-3.42-10.12-1.66-12.03,3.5l-112.6,305.1c-1.56,4.25-6.03,6.34-10.02,4.71l0,0
					C1031.76,1802.12,1029.65,1797.42,1030.97,1793.12z"/>
				
					<linearGradient id="SVGID_42_" gradientUnits="userSpaceOnUse" x1="1180.3859" y1="-1575.5219" x2="1222.6581" y2="-1575.5219" gradientTransform="matrix(1 0 0 1 0 2942)">
					<stop  offset="0" style="stop-color:#DAE3FE"/>
					<stop  offset="1" style="stop-color:#E9EFFD"/>
				</linearGradient>
				<path class="st48" d="M1222.6,1259.55c-0.37-2.72-2.12-4.97-4.66-5.85c-3.05-1.07-6.19,0.17-7.84,3.09l-29.2,51.45
					c-1.02,1.78-0.48,4.13,1.19,5.24s3.84,0.55,4.86-1.23l29.2-51.45c-4.66,63.53-14.2,212.12-14.06,215.16
					c0.05,2.05,1.74,3.75,3.68,3.68c1.92-0.07,3.42-1.78,3.37-3.84c0.05-4.41,7.3-118.29,13.48-214.61
					C1222.69,1260.61,1222.66,1260.07,1222.6,1259.55z"/>
			</g>
			<g>
				
					<linearGradient id="SVGID_43_" gradientUnits="userSpaceOnUse" x1="1247.9266" y1="-1075.4636" x2="1704.0629" y2="-1884.0671" gradientTransform="matrix(1 0 0 1 0 2942)">
					<stop  offset="0" style="stop-color:#4F52FF"/>
					<stop  offset="1" style="stop-color:#4042E2"/>
				</linearGradient>
				<path class="st49" d="M1042.58,1779.89l167.39,173.08c3.77,3.76,10.21,1.84,11.74-3.52l9.13-31.85
					c1.77-6.2,9.75-7.49,12.85-2.08l119.26,208.12c3.65,6.38-3.42,13.93-9.67,10.34l-202.05-115.73
					c-4.84-2.77-4.56-10.13,0.48-12.87l33.86-18.54c4.18-2.29,5.27-8,2.17-11.51l-155.38-185.07c-2.54-2.88-2.34-7.41,0.46-10.23
					l0,0C1035.58,1777.3,1039.89,1777.21,1042.58,1779.89z"/>
				
					<linearGradient id="SVGID_44_" gradientUnits="userSpaceOnUse" x1="1179.27" y1="-875.0302" x2="1344.8713" y2="-875.0302" gradientTransform="matrix(1 0 0 1 0 2942)">
					<stop  offset="0" style="stop-color:#DAE3FE"/>
					<stop  offset="1" style="stop-color:#E9EFFD"/>
				</linearGradient>
				<path class="st50" d="M1180.24,2019.85c-0.27,0.28-0.52,0.63-0.68,1.02c-0.72,1.66-0.04,3.55,1.51,4.29
					c3.25,1.65,85.25,49.01,154.59,89.14c2.47,1.41,5.38,0.96,7.45-1.29c2-2.2,2.32-5.32,0.81-7.78l-26.77-43.45
					c-0.93-1.5-2.89-1.92-4.38-0.87c-1.48,1-1.95,3.05-1.02,4.57l26.77,43.47c-45.49-26.96-152.45-88.83-154.76-89.84
					C1182.54,2018.55,1181.16,2018.89,1180.24,2019.85z"/>
			</g>
			
				<linearGradient id="SVGID_45_" gradientUnits="userSpaceOnUse" x1="1075.7102" y1="-1211.2863" x2="968.5881" y2="-1017.1274" gradientTransform="matrix(1 0 0 1 0 2942)">
				<stop  offset="0" style="stop-color:#4F52FF"/>
				<stop  offset="1" style="stop-color:#4042E2"/>
			</linearGradient>
			<ellipse class="st51" cx="1047.85" cy="1781.21" rx="37.83" ry="37.83"/>
		</g>
	</g>
</g>
</svg>
